<svg width="117" height="69" viewBox="0 0 117 69" fill="none" xmlns="http://www.w3.org/2000/svg">
<path d="M21.0292 28.4727V33.5H4.37878V28.4727H21.0292ZM6.48425 2.21875V33.5H0.0389404V2.21875H6.48425ZM18.8593 14.959V19.8574H4.37878V14.959H18.8593ZM21.0077 2.21875V7.26758H4.37878V2.21875H21.0077ZM37.701 28.4297V0.5H43.9315V33.5H38.3241L37.701 28.4297ZM23.0057 22.1562V21.7051C23.0057 19.929 23.2063 18.3177 23.6073 16.8711C24.0083 15.4102 24.5956 14.1569 25.369 13.1113C26.1425 12.0658 27.0949 11.2565 28.2264 10.6836C29.358 10.1107 30.647 9.82422 32.0936 9.82422C33.4543 9.82422 34.6431 10.1107 35.66 10.6836C36.6913 11.2565 37.565 12.0729 38.2811 13.1328C39.0116 14.1784 39.5988 15.4173 40.0428 16.8496C40.4869 18.2676 40.8091 19.8216 41.0096 21.5117V22.5C40.8091 24.1185 40.4869 25.6224 40.0428 27.0117C39.5988 28.401 39.0116 29.6185 38.2811 30.6641C37.565 31.6953 36.6913 32.4974 35.66 33.0703C34.6288 33.6432 33.4257 33.9297 32.0507 33.9297C30.604 33.9297 29.315 33.6361 28.1835 33.0488C27.0663 32.4616 26.121 31.638 25.3475 30.5781C24.5884 29.5182 24.0083 28.2721 23.6073 26.8398C23.2063 25.4076 23.0057 23.8464 23.0057 22.1562ZM29.1932 21.7051V22.1562C29.1932 23.1159 29.2649 24.0111 29.4081 24.8418C29.5656 25.6725 29.8163 26.4102 30.16 27.0547C30.5181 27.6849 30.9764 28.179 31.535 28.5371C32.108 28.8809 32.8026 29.0527 33.619 29.0527C34.6789 29.0527 35.5526 28.8164 36.2401 28.3438C36.9276 27.8568 37.4504 27.1908 37.8085 26.3457C38.1809 25.5007 38.3957 24.5267 38.453 23.4238V20.6094C38.41 19.707 38.2811 18.8978 38.0663 18.1816C37.8658 17.4512 37.565 16.8281 37.1639 16.3125C36.7772 15.7969 36.2902 15.3958 35.703 15.1094C35.1301 14.8229 34.4497 14.6797 33.662 14.6797C32.8599 14.6797 32.1724 14.8659 31.5995 15.2383C31.0266 15.5964 30.5611 16.0905 30.203 16.7207C29.8593 17.3509 29.6014 18.0957 29.4296 18.9551C29.272 19.8001 29.1932 20.7168 29.1932 21.7051ZM62.5155 27.9355V10.2539H68.703V33.5H62.8807L62.5155 27.9355ZM63.203 23.166L65.0292 23.123C65.0292 24.6699 64.8501 26.1094 64.4921 27.4414C64.134 28.7591 63.5969 29.9049 62.8807 30.8789C62.1646 31.8385 61.2622 32.5905 60.1737 33.1348C59.0852 33.6647 57.8033 33.9297 56.328 33.9297C55.1965 33.9297 54.1509 33.7721 53.1913 33.457C52.246 33.1276 51.4296 32.6191 50.7421 31.9316C50.0689 31.2298 49.5389 30.3346 49.1522 29.2461C48.7798 28.1432 48.5936 26.8184 48.5936 25.2715V10.2539H54.7811V25.3145C54.7811 26.002 54.8599 26.582 55.0175 27.0547C55.1893 27.5273 55.4257 27.9141 55.7264 28.2148C56.0272 28.5156 56.3781 28.7305 56.7792 28.8594C57.1945 28.9883 57.6529 29.0527 58.1542 29.0527C59.4289 29.0527 60.4315 28.7949 61.162 28.2793C61.9068 27.7637 62.4296 27.0618 62.7303 26.1738C63.0455 25.2715 63.203 24.2689 63.203 23.166ZM83.0331 29.0957C83.7922 29.0957 84.4654 28.9525 85.0526 28.666C85.6399 28.3652 86.0982 27.9499 86.4276 27.4199C86.7714 26.8757 86.9504 26.2383 86.9647 25.5078H92.787C92.7727 27.1406 92.3358 28.5944 91.4764 29.8691C90.6171 31.1296 89.4641 32.125 88.0175 32.8555C86.5708 33.5716 84.9524 33.9297 83.162 33.9297C81.3573 33.9297 79.7818 33.6289 78.4354 33.0273C77.1034 32.4258 75.9934 31.5951 75.1053 30.5352C74.2173 29.4609 73.5513 28.2148 73.1073 26.7969C72.6633 25.3646 72.4413 23.832 72.4413 22.1992V21.5762C72.4413 19.929 72.6633 18.3965 73.1073 16.9785C73.5513 15.5462 74.2173 14.3001 75.1053 13.2402C75.9934 12.166 77.1034 11.3281 78.4354 10.7266C79.7675 10.125 81.3287 9.82422 83.119 9.82422C85.024 9.82422 86.6926 10.1895 88.1249 10.9199C89.5715 11.6504 90.703 12.696 91.5194 14.0566C92.3501 15.403 92.7727 17 92.787 18.8477H86.9647C86.9504 18.0742 86.7857 17.3724 86.4706 16.7422C86.1698 16.112 85.7258 15.6107 85.1385 15.2383C84.5656 14.8516 83.8566 14.6582 83.0116 14.6582C82.1093 14.6582 81.3716 14.8516 80.7987 15.2383C80.2258 15.6107 79.7818 16.1263 79.4667 16.7852C79.1516 17.4297 78.9296 18.1673 78.8007 18.998C78.6861 19.8145 78.6288 20.6738 78.6288 21.5762V22.1992C78.6288 23.1016 78.6861 23.9681 78.8007 24.7988C78.9152 25.6296 79.1301 26.3672 79.4452 27.0117C79.7746 27.6562 80.2258 28.1647 80.7987 28.5371C81.3716 28.9095 82.1164 29.0957 83.0331 29.0957ZM108.922 28.2578V17.9023C108.922 17.1576 108.8 16.5202 108.557 15.9902C108.313 15.446 107.933 15.0234 107.418 14.7227C106.917 14.4219 106.265 14.2715 105.463 14.2715C104.775 14.2715 104.181 14.3932 103.68 14.6367C103.178 14.8659 102.792 15.2025 102.519 15.6465C102.247 16.0762 102.111 16.5846 102.111 17.1719H95.9237C95.9237 16.1836 96.1529 15.2454 96.6112 14.3574C97.0695 13.4694 97.7356 12.6888 98.6093 12.0156C99.483 11.3281 100.521 10.791 101.724 10.4043C102.942 10.0176 104.303 9.82422 105.807 9.82422C107.611 9.82422 109.215 10.125 110.619 10.7266C112.023 11.3281 113.126 12.2305 113.928 13.4336C114.744 14.6367 115.152 16.1406 115.152 17.9453V27.8926C115.152 29.1673 115.231 30.2129 115.389 31.0293C115.546 31.8314 115.775 32.5332 116.076 33.1348V33.5H109.824C109.523 32.8698 109.294 32.082 109.137 31.1367C108.993 30.1771 108.922 29.2174 108.922 28.2578ZM109.738 19.3418L109.781 22.8438H106.322C105.506 22.8438 104.797 22.9368 104.195 23.123C103.594 23.3092 103.099 23.5742 102.713 23.918C102.326 24.2474 102.04 24.6341 101.853 25.0781C101.682 25.5221 101.596 26.0091 101.596 26.5391C101.596 27.069 101.717 27.5488 101.961 27.9785C102.204 28.3939 102.555 28.7233 103.014 28.9668C103.472 29.196 104.009 29.3105 104.625 29.3105C105.556 29.3105 106.365 29.1243 107.053 28.752C107.74 28.3796 108.27 27.9212 108.642 27.377C109.029 26.8327 109.23 26.3171 109.244 25.8301L110.877 28.4512C110.648 29.0384 110.333 29.6471 109.932 30.2773C109.545 30.9076 109.051 31.502 108.449 32.0605C107.848 32.6048 107.124 33.056 106.279 33.4141C105.434 33.7578 104.432 33.9297 103.271 33.9297C101.796 33.9297 100.457 33.6361 99.2538 33.0488C98.065 32.4473 97.1197 31.6237 96.4178 30.5781C95.7303 29.5182 95.3866 28.3151 95.3866 26.9688C95.3866 25.7513 95.6158 24.6699 96.0741 23.7246C96.5324 22.7793 97.2056 21.9844 98.0936 21.3398C98.996 20.681 100.12 20.1868 101.467 19.8574C102.813 19.5137 104.374 19.3418 106.15 19.3418H109.738ZM0.0389404 37.2188H11.705C14.0969 37.2188 16.1522 37.5768 17.871 38.293C19.604 39.0091 20.9361 40.069 21.8671 41.4727C22.7981 42.8763 23.2635 44.6022 23.2635 46.6504C23.2635 48.3262 22.9771 49.7656 22.4042 50.9688C21.8456 52.1576 21.0507 53.153 20.0194 53.9551C19.0025 54.7428 17.8065 55.373 16.4315 55.8457L14.3905 56.9199H4.24988L4.20691 51.8926H11.7479C12.8794 51.8926 13.8176 51.6921 14.5624 51.291C15.3072 50.89 15.8658 50.3314 16.2382 49.6152C16.6249 48.8991 16.8182 48.0684 16.8182 47.123C16.8182 46.1204 16.632 45.2539 16.2596 44.5234C15.8872 43.793 15.3215 43.2344 14.5624 42.8477C13.8033 42.4609 12.8508 42.2676 11.705 42.2676H6.48425V68.5H0.0389404V37.2188ZM17.5272 68.5L10.3944 54.5566L17.205 54.5137L24.4237 68.1992V68.5H17.5272ZM26.8514 57.1133V56.6621C26.8514 54.9577 27.0949 53.3893 27.5819 51.957C28.0689 50.5104 28.7779 49.2572 29.7089 48.1973C30.6399 47.1374 31.7857 46.3138 33.1464 45.7266C34.507 45.125 36.0682 44.8242 37.83 44.8242C39.5917 44.8242 41.16 45.125 42.535 45.7266C43.91 46.3138 45.063 47.1374 45.994 48.1973C46.9393 49.2572 47.6555 50.5104 48.1425 51.957C48.6294 53.3893 48.8729 54.9577 48.8729 56.6621V57.1133C48.8729 58.8034 48.6294 60.3717 48.1425 61.8184C47.6555 63.2507 46.9393 64.5039 45.994 65.5781C45.063 66.638 43.9172 67.4616 42.5565 68.0488C41.1958 68.6361 39.6346 68.9297 37.8729 68.9297C36.1112 68.9297 34.5428 68.6361 33.1678 68.0488C31.8072 67.4616 30.6542 66.638 29.7089 65.5781C28.7779 64.5039 28.0689 63.2507 27.5819 61.8184C27.0949 60.3717 26.8514 58.8034 26.8514 57.1133ZM33.0389 56.6621V57.1133C33.0389 58.0872 33.1249 58.9967 33.2968 59.8418C33.4686 60.6868 33.7408 61.4316 34.1132 62.0762C34.4999 62.7064 35.0012 63.2005 35.6171 63.5586C36.233 63.9167 36.9849 64.0957 37.8729 64.0957C38.7323 64.0957 39.4699 63.9167 40.0858 63.5586C40.7017 63.2005 41.1958 62.7064 41.5682 62.0762C41.9406 61.4316 42.2128 60.6868 42.3846 59.8418C42.5708 58.9967 42.6639 58.0872 42.6639 57.1133V56.6621C42.6639 55.7168 42.5708 54.8288 42.3846 53.998C42.2128 53.153 41.9335 52.4082 41.5468 51.7637C41.1744 51.1048 40.6802 50.5892 40.0643 50.2168C39.4484 49.8444 38.7037 49.6582 37.83 49.6582C36.9563 49.6582 36.2115 49.8444 35.5956 50.2168C34.994 50.5892 34.4999 51.1048 34.1132 51.7637C33.7408 52.4082 33.4686 53.153 33.2968 53.998C33.1249 54.8288 33.0389 55.7168 33.0389 56.6621ZM62.2792 64.0957C63.0383 64.0957 63.7115 63.9525 64.2987 63.666C64.8859 63.3652 65.3443 62.9499 65.6737 62.4199C66.0175 61.8757 66.1965 61.2383 66.2108 60.5078H72.0331C72.0188 62.1406 71.5819 63.5944 70.7225 64.8691C69.8632 66.1296 68.7102 67.125 67.2635 67.8555C65.8169 68.5716 64.1984 68.9297 62.4081 68.9297C60.6034 68.9297 59.0279 68.6289 57.6815 68.0273C56.3495 67.4258 55.2395 66.5951 54.3514 65.5352C53.4634 64.4609 52.7974 63.2148 52.3534 61.7969C51.9094 60.3646 51.6874 58.832 51.6874 57.1992V56.5762C51.6874 54.929 51.9094 53.3965 52.3534 51.9785C52.7974 50.5462 53.4634 49.3001 54.3514 48.2402C55.2395 47.166 56.3495 46.3281 57.6815 45.7266C59.0135 45.125 60.5747 44.8242 62.3651 44.8242C64.2701 44.8242 65.9387 45.1895 67.371 45.9199C68.8176 46.6504 69.9491 47.696 70.7655 49.0566C71.5962 50.403 72.0188 52 72.0331 53.8477H66.2108C66.1965 53.0742 66.0318 52.3724 65.7167 51.7422C65.4159 51.112 64.9719 50.6107 64.3846 50.2383C63.8117 49.8516 63.1027 49.6582 62.2577 49.6582C61.3553 49.6582 60.6177 49.8516 60.0448 50.2383C59.4719 50.6107 59.0279 51.1263 58.7128 51.7852C58.3977 52.4297 58.1757 53.1673 58.0468 53.998C57.9322 54.8145 57.8749 55.6738 57.8749 56.5762V57.1992C57.8749 58.1016 57.9322 58.9681 58.0468 59.7988C58.1613 60.6296 58.3762 61.3672 58.6913 62.0117C59.0207 62.6562 59.4719 63.1647 60.0448 63.5371C60.6177 63.9095 61.3625 64.0957 62.2792 64.0957ZM81.8085 35.4785V68.5H75.621V35.4785H81.8085ZM96.4608 45.2539L86.3632 56.7695L80.9491 62.248L78.6932 57.7793L82.9901 52.3223L89.0272 45.2539H96.4608ZM90.037 68.5L83.162 57.7578L87.4374 54.0195L97.1698 68.5H90.037Z" fill="white"/>
</svg>
