<svg width="60" height="57" viewBox="0 0 60 57" fill="none" xmlns="http://www.w3.org/2000/svg">
<path d="M12.3223 45.184C15.8186 48.446 20.2732 50.6675 25.1227 51.5675C29.9723 52.4675 34.9989 52.0056 39.5671 50.2402C44.1352 48.4748 48.0397 45.4852 50.7867 41.6495C53.5338 37.8138 55 33.3042 55 28.691C55 24.0779 53.5338 19.5683 50.7867 15.7326C48.0397 11.8969 44.1352 8.9073 39.5671 7.14191C34.9989 5.37653 29.9723 4.91462 25.1227 5.81461C20.2732 6.71459 15.8186 8.93605 12.3223 12.198" stroke="#CCD2E3" stroke-width="4"/>
<path d="M37.5 28.691L39.0183 27.3892L40.1346 28.691L39.0183 29.9929L37.5 28.691ZM7.5 30.691C6.39543 30.691 5.5 29.7956 5.5 28.691C5.5 27.5865 6.39543 26.691 7.5 26.691V30.691ZM29.0183 15.7269L39.0183 27.3892L35.9817 29.9929L25.9817 18.3306L29.0183 15.7269ZM39.0183 29.9929L29.0183 41.6552L25.9817 39.0515L35.9817 27.3892L39.0183 29.9929ZM37.5 30.691H7.5V26.691H37.5V30.691Z" fill="#CCD2E3"/>
</svg>
