<svg width="39" height="74" viewBox="0 0 39 74" fill="none" xmlns="http://www.w3.org/2000/svg">
<path d="M36.6018 15.1039L37.0775 15.1094C37.6975 15.1167 38.2109 14.6154 38.2183 13.9954L38.2459 11.6577C38.2532 11.0377 37.7519 10.5242 37.1318 10.5169L36.6561 10.5113C36.0359 10.5041 35.5226 11.0054 35.5153 11.6254L35.511 11.9875L33.2081 11.9602L33.299 4.26657C33.3115 3.21255 32.3098 2.43523 31.2944 2.71836C30.3612 2.97844 29.4271 3.30585 28.4962 3.36954C28.2548 3.38603 28.014 3.33742 27.7912 3.243C25.9294 2.45367 23.0726 0.733937 19.5168 0.74148C16.3499 0.748184 13.7424 2.27712 11.9549 3.0135C11.6767 3.12804 11.3712 3.15807 11.0752 3.10444L7.12916 2.3883C6.16356 2.213 5.27213 2.94827 5.26054 3.92966L5.16974 11.6127L2.98167 11.5869L2.986 11.2248C2.99326 10.6048 2.49195 10.0913 1.87192 10.0841L1.39603 10.0785C0.775994 10.0712 0.262535 10.5725 0.255271 11.1926L0.227615 13.5302C0.220352 14.1503 0.721659 14.6637 1.34183 14.671L1.81772 14.6766C2.43776 14.684 2.95122 14.1825 2.95848 13.5625L2.95988 13.4487L5.14795 13.4745L5.05604 21.2478L2.86797 21.2219L2.8723 20.8599C2.87956 20.2399 2.37825 19.7264 1.75822 19.7191L1.28233 19.7135C0.662296 19.7063 0.148836 20.2076 0.141573 20.8276L0.113915 23.1653C0.106512 23.7853 0.607961 24.2988 1.22814 24.3061L1.70388 24.3116C2.32406 24.3189 2.83738 23.8176 2.84464 23.1976L2.84604 23.0837L5.03411 23.1096L4.94221 30.8829L2.75413 30.857L2.75846 30.495C2.76573 29.8748 2.26442 29.3615 1.64438 29.3542L1.16849 29.3486C0.548457 29.3414 0.0349975 29.8427 0.0277341 30.4627L7.79425e-05 32.8004C-0.00718538 33.4204 0.494123 33.9339 1.11416 33.9411L1.59005 33.9467C2.21008 33.9541 2.72354 33.4527 2.7308 32.8326L2.7322 32.7188L4.92028 32.7446L4.81859 41.3505C4.80825 42.2233 5.5128 42.9362 6.38551 42.9362C9.94356 42.9362 12.8162 45.8429 12.7742 49.4007L12.6897 56.5478L12.7015 68.9144C12.7017 69.0372 12.8013 69.1367 12.924 69.1367H14.1223C14.2453 69.1367 14.3448 69.0371 14.3448 68.9141V56.5676L17.7814 56.6083V73.0361C17.7814 73.159 17.881 73.2586 18.0039 73.2586H19.2021C19.325 73.2586 19.4246 73.159 19.4246 73.0361V56.6277L22.9833 56.6697V68.9146C22.9833 69.0375 23.0829 69.1371 23.2058 69.1371H24.404C24.5269 69.1371 24.6265 69.0375 24.6265 68.9146L24.6287 56.6891L24.7114 49.6948C24.7537 46.1122 27.67 43.2304 31.2529 43.2304H31.2717C32.1401 43.2304 32.8469 42.5318 32.8571 41.6636L32.9584 33.0926L35.2612 33.1198L35.2599 33.2337C35.2526 33.8538 35.7539 34.3671 36.3741 34.3744L36.8498 34.38C37.4699 34.3873 37.9832 33.886 37.9906 33.2659L38.0182 30.9282C38.0255 30.3081 37.5242 29.7948 36.904 29.7875L36.4283 29.7819C35.8082 29.7746 35.2948 30.2759 35.2875 30.896L35.2832 31.258L32.9803 31.2308L33.0722 23.4575L35.3751 23.4847L35.3737 23.5986C35.3664 24.2188 35.8677 24.7321 36.4879 24.7393L36.9637 24.7449C37.5837 24.7522 38.097 24.2509 38.1044 23.6308L38.1321 21.2932C38.1393 20.673 37.638 20.1597 37.018 20.1524L36.5423 20.1468C35.9221 20.1394 35.4088 20.6409 35.4015 21.2609L35.3972 21.623L33.0943 21.5957L33.1862 13.8224L35.4891 13.8497L35.4877 13.9635C35.4803 14.5833 35.9817 15.0966 36.6018 15.1039ZM10.0697 33.6648C8.92139 33.6513 8.00146 32.7093 8.01501 31.561C8.02856 30.4127 8.97056 29.4928 10.1189 29.5063C11.2672 29.5199 12.1871 30.4619 12.1735 31.6102C12.16 32.7585 11.218 33.6784 10.0697 33.6648ZM10.1814 24.2023C9.03313 24.1887 8.1132 23.2467 8.12675 22.0984C8.1403 20.9501 9.0823 20.0302 10.2306 20.0437C11.3789 20.0573 12.2988 20.9992 12.2853 22.1476C12.2717 23.296 11.3299 24.216 10.1814 24.2023ZM10.2933 14.7399C9.14501 14.7263 8.22509 13.7843 8.23864 12.636C8.25218 11.4877 9.19418 10.5678 10.3425 10.5813C11.4908 10.5949 12.4107 11.5369 12.3972 12.6852C12.3836 13.8335 11.4416 14.7534 10.2933 14.7399ZM27.9208 33.8758C26.7725 33.8622 25.8526 32.9202 25.8661 31.7719C25.8797 30.6236 26.8216 29.7037 27.97 29.7172C29.1183 29.7308 30.0382 30.6728 30.0247 31.8211C30.0111 32.9694 29.0693 33.8893 27.9208 33.8758ZM28.0327 24.4133C26.8844 24.3998 25.9645 23.4578 25.978 22.3095C25.9916 21.1612 26.9336 20.2413 28.0819 20.2548C29.2302 20.2684 30.1501 21.2103 30.1366 22.3587C30.123 23.507 29.181 24.4269 28.0327 24.4133ZM28.1446 14.9508C26.9963 14.9372 26.0764 13.9952 26.0899 12.8469C26.1035 11.6986 27.0455 10.7787 28.1938 10.7922C29.3421 10.8058 30.262 11.7478 30.2484 12.8961C30.2348 14.0445 29.2929 14.9645 28.1446 14.9508Z" fill="#A90F0F"/>
</svg>
