<svg width="135" height="12" viewBox="0 0 135 12" fill="none" xmlns="http://www.w3.org/2000/svg">
<path d="M4.13074 1.47852L1.17761 9.5H0.427612L3.65027 0.96875H4.17175L4.13074 1.47852ZM6.81433 9.5L3.85535 1.47852L3.81433 0.96875H4.33582L7.56433 9.5H6.81433ZM6.28699 6.48828V7.10938H1.75769V6.48828H6.28699ZM9.3573 4.37891V11.9375H8.65417V3.16016H9.31042L9.3573 4.37891ZM13.7635 6.27148V6.39453C13.7635 6.86719 13.7089 7.30078 13.5995 7.69531C13.4901 8.08984 13.3319 8.43164 13.1249 8.7207C12.9218 9.00586 12.6698 9.22656 12.369 9.38281C12.0682 9.53906 11.7264 9.61719 11.3436 9.61719C10.9647 9.61719 10.6268 9.55859 10.33 9.44141C10.0331 9.32422 9.77722 9.1582 9.56238 8.94336C9.35144 8.72461 9.18152 8.4707 9.05261 8.18164C8.92761 7.88867 8.83972 7.56836 8.78894 7.2207V5.59766C8.84753 5.21484 8.94324 4.86719 9.07605 4.55469C9.20886 4.24219 9.37878 3.97266 9.58582 3.74609C9.79675 3.51953 10.0468 3.3457 10.3358 3.22461C10.6249 3.10352 10.955 3.04297 11.326 3.04297C11.7128 3.04297 12.0565 3.11914 12.3573 3.27148C12.662 3.41992 12.9178 3.63672 13.1249 3.92188C13.3358 4.20312 13.494 4.54297 13.5995 4.94141C13.7089 5.33594 13.7635 5.7793 13.7635 6.27148ZM13.0604 6.39453V6.27148C13.0604 5.90039 13.0214 5.55664 12.9432 5.24023C12.869 4.92383 12.7538 4.64844 12.5975 4.41406C12.4452 4.17578 12.2499 3.99023 12.0116 3.85742C11.7772 3.72461 11.4979 3.6582 11.1737 3.6582C10.8378 3.6582 10.5507 3.71484 10.3124 3.82812C10.078 3.9375 9.88269 4.08398 9.72644 4.26758C9.57019 4.44727 9.44714 4.64453 9.3573 4.85938C9.26746 5.07422 9.20105 5.28516 9.15808 5.49219V7.36133C9.2323 7.6582 9.35144 7.93359 9.5155 8.1875C9.67957 8.4375 9.89832 8.63867 10.1718 8.79102C10.4491 8.93945 10.787 9.01367 11.1854 9.01367C11.5057 9.01367 11.7831 8.94727 12.0175 8.81445C12.2518 8.68164 12.4452 8.49609 12.5975 8.25781C12.7538 8.01953 12.869 7.74219 12.9432 7.42578C13.0214 7.10938 13.0604 6.76562 13.0604 6.39453ZM16.0194 4.20898V9.5H15.3221V3.16016H16.0018L16.0194 4.20898ZM18.2635 3.11328L18.246 3.75781C18.1678 3.74609 18.0917 3.73633 18.0175 3.72852C17.9432 3.7207 17.8632 3.7168 17.7772 3.7168C17.4725 3.7168 17.205 3.77344 16.9745 3.88672C16.7479 3.99609 16.5565 4.15039 16.4003 4.34961C16.244 4.54492 16.1249 4.77539 16.0428 5.04102C15.9608 5.30273 15.9139 5.58398 15.9022 5.88477L15.6444 5.98438C15.6444 5.57031 15.6874 5.18555 15.7733 4.83008C15.8593 4.47461 15.9901 4.16406 16.1659 3.89844C16.3456 3.62891 16.5702 3.41992 16.8397 3.27148C17.1132 3.11914 17.4335 3.04297 17.8007 3.04297C17.8905 3.04297 17.9784 3.05078 18.0643 3.06641C18.1542 3.07812 18.2206 3.09375 18.2635 3.11328ZM21.6971 9.61719C21.2831 9.61719 20.9022 9.54102 20.5546 9.38867C20.2108 9.23633 19.91 9.02148 19.6522 8.74414C19.3983 8.4668 19.201 8.13867 19.0604 7.75977C18.9237 7.37695 18.8553 6.95898 18.8553 6.50586V6.25391C18.8553 5.76562 18.9276 5.32422 19.0721 4.92969C19.2167 4.53516 19.4159 4.19727 19.6698 3.91602C19.9237 3.63477 20.2128 3.41992 20.537 3.27148C20.8651 3.11914 21.2089 3.04297 21.5682 3.04297C21.9706 3.04297 22.328 3.11523 22.6405 3.25977C22.953 3.40039 23.2147 3.60156 23.4257 3.86328C23.6405 4.12109 23.8026 4.42773 23.912 4.7832C24.0214 5.13477 24.076 5.52344 24.076 5.94922V6.37695H19.2772V5.7793H23.3788V5.69727C23.371 5.3418 23.2987 5.00977 23.162 4.70117C23.0292 4.38867 22.83 4.13477 22.5643 3.93945C22.2987 3.74414 21.9667 3.64648 21.5682 3.64648C21.2714 3.64648 20.9979 3.70898 20.7479 3.83398C20.5018 3.95898 20.2889 4.13867 20.1093 4.37305C19.9335 4.60352 19.7968 4.87891 19.6991 5.19922C19.6053 5.51562 19.5585 5.86719 19.5585 6.25391V6.50586C19.5585 6.85742 19.6093 7.18555 19.7108 7.49023C19.8163 7.79102 19.9647 8.05664 20.1561 8.28711C20.3514 8.51758 20.5819 8.69727 20.8475 8.82617C21.1132 8.95508 21.4061 9.01953 21.7264 9.01953C22.1014 9.01953 22.4335 8.95117 22.7225 8.81445C23.0116 8.67383 23.2714 8.45312 23.5018 8.15234L23.9413 8.49219C23.8046 8.69531 23.6327 8.88281 23.4257 9.05469C23.2225 9.22656 22.9784 9.36328 22.6932 9.46484C22.4081 9.56641 22.076 9.61719 21.6971 9.61719ZM26.1561 4.51367V9.5H25.4589V3.16016H26.1268L26.1561 4.51367ZM25.9979 5.9375L25.6874 5.76172C25.7108 5.38672 25.787 5.03516 25.9159 4.70703C26.0448 4.37891 26.2186 4.08984 26.4374 3.83984C26.66 3.58984 26.9198 3.39453 27.2167 3.25391C27.5175 3.11328 27.8495 3.04297 28.2128 3.04297C28.5292 3.04297 28.8124 3.08594 29.0624 3.17188C29.3124 3.25781 29.5253 3.39453 29.701 3.58203C29.8768 3.76953 30.0096 4.00977 30.0995 4.30273C30.1932 4.5957 30.2401 4.95312 30.2401 5.375V9.5H29.537V5.36914C29.537 4.93164 29.4764 4.58984 29.3553 4.34375C29.2343 4.09375 29.0624 3.91602 28.8397 3.81055C28.6171 3.70508 28.3534 3.65234 28.0487 3.65234C27.7128 3.65234 27.4178 3.72656 27.1639 3.875C26.9139 4.01953 26.703 4.20898 26.5311 4.44336C26.3632 4.67383 26.2343 4.92188 26.1444 5.1875C26.0546 5.44922 26.0057 5.69922 25.9979 5.9375ZM36.1757 8.26953V0.5H36.8788V9.5H36.2225L36.1757 8.26953ZM31.7753 6.39453V6.27148C31.7753 5.7793 31.8319 5.33594 31.9452 4.94141C32.0585 4.54297 32.2206 4.20312 32.4315 3.92188C32.6464 3.63672 32.9042 3.41992 33.205 3.27148C33.5057 3.11914 33.8456 3.04297 34.2245 3.04297C34.5956 3.04297 34.9237 3.10352 35.2089 3.22461C35.494 3.3457 35.7382 3.51953 35.9413 3.74609C36.1483 3.97266 36.3143 4.24219 36.4393 4.55469C36.5682 4.86719 36.662 5.21484 36.7206 5.59766V7.16211C36.6737 7.52148 36.5878 7.85156 36.4628 8.15234C36.3378 8.44922 36.1718 8.70898 35.9647 8.93164C35.7577 9.15039 35.5077 9.32031 35.2147 9.44141C34.9257 9.55859 34.5917 9.61719 34.2128 9.61719C33.8378 9.61719 33.4999 9.53906 33.1991 9.38281C32.8983 9.22656 32.6425 9.00586 32.4315 8.7207C32.2206 8.43164 32.0585 8.08984 31.9452 7.69531C31.8319 7.30078 31.7753 6.86719 31.7753 6.39453ZM32.4784 6.27148V6.39453C32.4784 6.76562 32.5155 7.10938 32.5897 7.42578C32.6639 7.74219 32.7772 8.01758 32.9296 8.25195C33.0819 8.48633 33.2753 8.66992 33.5096 8.80273C33.744 8.93555 34.0214 9.00195 34.3417 9.00195C34.744 9.00195 35.0819 8.92578 35.3553 8.77344C35.6288 8.61719 35.8475 8.41211 36.0116 8.1582C36.1757 7.90039 36.2948 7.61914 36.369 7.31445V5.49219C36.3221 5.28516 36.2538 5.07422 36.1639 4.85938C36.0741 4.64453 35.951 4.44727 35.7948 4.26758C35.6425 4.08398 35.4471 3.9375 35.2089 3.82812C34.9745 3.71484 34.6893 3.6582 34.3534 3.6582C34.0292 3.6582 33.7499 3.72461 33.5155 3.85742C33.2811 3.99023 33.0858 4.17578 32.9296 4.41406C32.7772 4.64844 32.6639 4.92383 32.5897 5.24023C32.5155 5.55664 32.4784 5.90039 32.4784 6.27148ZM42.58 8.36328V5.09375C42.58 4.79297 42.5175 4.5332 42.3925 4.31445C42.2675 4.0957 42.0839 3.92773 41.8417 3.81055C41.5995 3.69336 41.3007 3.63477 40.9452 3.63477C40.6171 3.63477 40.3241 3.69336 40.0663 3.81055C39.8124 3.92383 39.6112 4.07812 39.4628 4.27344C39.3182 4.46484 39.246 4.67773 39.246 4.91211L38.5428 4.90625C38.5428 4.66797 38.6014 4.4375 38.7186 4.21484C38.8358 3.99219 39.0018 3.79297 39.2167 3.61719C39.4315 3.44141 39.6874 3.30273 39.9843 3.20117C40.285 3.0957 40.6151 3.04297 40.9745 3.04297C41.4276 3.04297 41.826 3.11914 42.1698 3.27148C42.5175 3.42383 42.7889 3.65234 42.9843 3.95703C43.1796 4.26172 43.2772 4.64453 43.2772 5.10547V8.16992C43.2772 8.38867 43.2928 8.61523 43.3241 8.84961C43.3593 9.08398 43.4081 9.27734 43.4706 9.42969V9.5H42.7264C42.6796 9.35938 42.6425 9.18359 42.6151 8.97266C42.5917 8.75781 42.58 8.55469 42.58 8.36328ZM42.744 5.80859L42.7557 6.34766H41.3788C41.0194 6.34766 40.6971 6.38086 40.412 6.44727C40.1307 6.50977 39.8925 6.60352 39.6971 6.72852C39.5018 6.84961 39.3514 6.99609 39.246 7.16797C39.1444 7.33984 39.0936 7.53516 39.0936 7.75391C39.0936 7.98047 39.1503 8.1875 39.2635 8.375C39.3807 8.5625 39.5448 8.71289 39.7557 8.82617C39.9706 8.93555 40.2245 8.99023 40.5175 8.99023C40.9081 8.99023 41.2518 8.91797 41.5487 8.77344C41.8495 8.62891 42.0975 8.43945 42.2928 8.20508C42.4882 7.9707 42.619 7.71484 42.6854 7.4375L42.9901 7.8418C42.9393 8.03711 42.8456 8.23828 42.7089 8.44531C42.576 8.64844 42.4022 8.83984 42.1874 9.01953C41.9725 9.19531 41.7186 9.33984 41.4257 9.45312C41.1366 9.5625 40.8085 9.61719 40.4413 9.61719C40.0272 9.61719 39.6659 9.53906 39.3573 9.38281C39.0526 9.22656 38.8143 9.01367 38.6425 8.74414C38.4745 8.4707 38.3905 8.16211 38.3905 7.81836C38.3905 7.50586 38.4569 7.22656 38.5897 6.98047C38.7225 6.73047 38.9139 6.51953 39.1639 6.34766C39.4178 6.17188 39.7225 6.03906 40.078 5.94922C40.4374 5.85547 40.8397 5.80859 41.285 5.80859H42.744ZM50.4257 9.01367C50.7225 9.01367 50.9999 8.95898 51.2577 8.84961C51.5194 8.73633 51.7343 8.57031 51.9022 8.35156C52.0741 8.12891 52.1718 7.85742 52.1952 7.53711H52.8632C52.8436 7.93945 52.7206 8.29883 52.494 8.61523C52.2714 8.92773 51.9784 9.17383 51.6151 9.35352C51.2557 9.5293 50.8593 9.61719 50.4257 9.61719C49.9843 9.61719 49.5936 9.53711 49.2538 9.37695C48.9178 9.2168 48.6366 8.99414 48.41 8.70898C48.1835 8.41992 48.0116 8.08398 47.8944 7.70117C47.7811 7.31445 47.7245 6.89844 47.7245 6.45312V6.20703C47.7245 5.76172 47.7811 5.34766 47.8944 4.96484C48.0116 4.57812 48.1835 4.24219 48.41 3.95703C48.6366 3.66797 48.9178 3.44336 49.2538 3.2832C49.5897 3.12305 49.9784 3.04297 50.4198 3.04297C50.8729 3.04297 51.2792 3.13477 51.6385 3.31836C52.0018 3.50195 52.2909 3.76172 52.5057 4.09766C52.7245 4.43359 52.8436 4.83203 52.8632 5.29297H52.1952C52.1757 4.95312 52.0858 4.66016 51.9257 4.41406C51.7655 4.16797 51.5546 3.97852 51.2928 3.8457C51.0311 3.71289 50.7401 3.64648 50.4198 3.64648C50.0604 3.64648 49.7538 3.7168 49.4999 3.85742C49.246 3.99414 49.0389 4.18359 48.8788 4.42578C48.7225 4.66406 48.6073 4.9375 48.5331 5.24609C48.4589 5.55078 48.4218 5.87109 48.4218 6.20703V6.45312C48.4218 6.79297 48.4569 7.11719 48.5272 7.42578C48.6014 7.73047 48.7167 8.00195 48.8729 8.24023C49.0331 8.47852 49.2401 8.66797 49.494 8.80859C49.7518 8.94531 50.0624 9.01367 50.4257 9.01367ZM53.8885 6.42969V6.23633C53.8885 5.77539 53.955 5.34961 54.0878 4.95898C54.2206 4.56836 54.41 4.23047 54.6561 3.94531C54.9061 3.66016 55.205 3.43945 55.5526 3.2832C55.9003 3.12305 56.287 3.04297 56.7128 3.04297C57.1425 3.04297 57.5311 3.12305 57.8788 3.2832C58.2264 3.43945 58.5253 3.66016 58.7753 3.94531C59.0253 4.23047 59.2167 4.56836 59.3495 4.95898C59.4823 5.34961 59.5487 5.77539 59.5487 6.23633V6.42969C59.5487 6.89062 59.4823 7.31641 59.3495 7.70703C59.2167 8.09375 59.0253 8.42969 58.7753 8.71484C58.5292 9 58.2323 9.22266 57.8846 9.38281C57.537 9.53906 57.1503 9.61719 56.7245 9.61719C56.2948 9.61719 55.9061 9.53906 55.5585 9.38281C55.2108 9.22266 54.912 9 54.662 8.71484C54.412 8.42969 54.2206 8.09375 54.0878 7.70703C53.955 7.31641 53.8885 6.89062 53.8885 6.42969ZM54.5858 6.23633V6.42969C54.5858 6.77734 54.6327 7.10742 54.7264 7.41992C54.8202 7.72852 54.9569 8.00391 55.1366 8.24609C55.3163 8.48438 55.5389 8.67188 55.8046 8.80859C56.0702 8.94531 56.3768 9.01367 56.7245 9.01367C57.0682 9.01367 57.371 8.94531 57.6327 8.80859C57.8983 8.67188 58.121 8.48438 58.3007 8.24609C58.4803 8.00391 58.6151 7.72852 58.705 7.41992C58.7987 7.10742 58.8456 6.77734 58.8456 6.42969V6.23633C58.8456 5.89258 58.7987 5.56641 58.705 5.25781C58.6151 4.94922 58.4784 4.67383 58.2948 4.43164C58.1151 4.18945 57.8925 3.99805 57.6268 3.85742C57.3612 3.7168 57.0565 3.64648 56.7128 3.64648C56.369 3.64648 56.0643 3.7168 55.7987 3.85742C55.537 3.99805 55.3143 4.18945 55.1307 4.43164C54.951 4.67383 54.8143 4.94922 54.7206 5.25781C54.6307 5.56641 54.5858 5.89258 54.5858 6.23633ZM61.6639 4.47266V9.5H60.9608V3.16016H61.6346L61.6639 4.47266ZM61.535 5.9375L61.1952 5.76172C61.2186 5.38672 61.2889 5.03516 61.4061 4.70703C61.5272 4.37891 61.6952 4.08984 61.91 3.83984C62.1249 3.58984 62.3827 3.39453 62.6835 3.25391C62.9843 3.11328 63.326 3.04297 63.7089 3.04297C64.0175 3.04297 64.2968 3.08594 64.5468 3.17188C64.8007 3.25391 65.0155 3.38477 65.1913 3.56445C65.371 3.74023 65.5096 3.9707 65.6073 4.25586C65.705 4.54102 65.7538 4.88281 65.7538 5.28125V9.5H65.0565V5.30469C65.0565 4.88281 64.9901 4.55273 64.8573 4.31445C64.7284 4.07617 64.5468 3.90625 64.3124 3.80469C64.0819 3.70312 63.8143 3.65234 63.5096 3.65234C63.1503 3.65234 62.8456 3.72656 62.5956 3.875C62.3495 4.01953 62.1483 4.20898 61.9921 4.44336C61.8397 4.67383 61.7264 4.92188 61.6522 5.1875C61.578 5.44922 61.5389 5.69922 61.535 5.9375ZM65.7479 5.38672L65.2792 5.39844C65.2987 5.08984 65.369 4.79492 65.4901 4.51367C65.6151 4.23242 65.785 3.98242 65.9999 3.76367C66.2147 3.54102 66.4706 3.36523 66.7675 3.23633C67.0682 3.10742 67.4061 3.04297 67.7811 3.04297C68.1093 3.04297 68.4022 3.08789 68.66 3.17773C68.9178 3.26367 69.1346 3.40234 69.3104 3.59375C69.4901 3.78125 69.6268 4.02148 69.7206 4.31445C69.8143 4.60742 69.8612 4.95898 69.8612 5.36914V9.5H69.1581V5.36328C69.1581 4.91406 69.0917 4.56641 68.9589 4.32031C68.83 4.07031 68.6503 3.89648 68.4198 3.79883C68.1893 3.70117 67.9198 3.65234 67.6112 3.65234C67.3065 3.65625 67.0389 3.71289 66.8085 3.82227C66.578 3.92773 66.3846 4.06836 66.2284 4.24414C66.076 4.41602 65.9589 4.60156 65.8768 4.80078C65.7987 5 65.7557 5.19531 65.7479 5.38672ZM71.2557 6.42969V6.23633C71.2557 5.77539 71.3221 5.34961 71.455 4.95898C71.5878 4.56836 71.7772 4.23047 72.0233 3.94531C72.2733 3.66016 72.5721 3.43945 72.9198 3.2832C73.2675 3.12305 73.6542 3.04297 74.08 3.04297C74.5096 3.04297 74.8983 3.12305 75.246 3.2832C75.5936 3.43945 75.8925 3.66016 76.1425 3.94531C76.3925 4.23047 76.5839 4.56836 76.7167 4.95898C76.8495 5.34961 76.9159 5.77539 76.9159 6.23633V6.42969C76.9159 6.89062 76.8495 7.31641 76.7167 7.70703C76.5839 8.09375 76.3925 8.42969 76.1425 8.71484C75.8964 9 75.5995 9.22266 75.2518 9.38281C74.9042 9.53906 74.5175 9.61719 74.0917 9.61719C73.662 9.61719 73.2733 9.53906 72.9257 9.38281C72.578 9.22266 72.2792 9 72.0292 8.71484C71.7792 8.42969 71.5878 8.09375 71.455 7.70703C71.3221 7.31641 71.2557 6.89062 71.2557 6.42969ZM71.953 6.23633V6.42969C71.953 6.77734 71.9999 7.10742 72.0936 7.41992C72.1874 7.72852 72.3241 8.00391 72.5038 8.24609C72.6835 8.48438 72.9061 8.67188 73.1718 8.80859C73.4374 8.94531 73.744 9.01367 74.0917 9.01367C74.4354 9.01367 74.7382 8.94531 74.9999 8.80859C75.2655 8.67188 75.4882 8.48438 75.6678 8.24609C75.8475 8.00391 75.9823 7.72852 76.0721 7.41992C76.1659 7.10742 76.2128 6.77734 76.2128 6.42969V6.23633C76.2128 5.89258 76.1659 5.56641 76.0721 5.25781C75.9823 4.94922 75.8456 4.67383 75.662 4.43164C75.4823 4.18945 75.2596 3.99805 74.994 3.85742C74.7284 3.7168 74.4237 3.64648 74.08 3.64648C73.7362 3.64648 73.4315 3.7168 73.1659 3.85742C72.9042 3.99805 72.6815 4.18945 72.4979 4.43164C72.3182 4.67383 72.1815 4.94922 72.0878 5.25781C71.9979 5.56641 71.953 5.89258 71.953 6.23633ZM85.3593 8.03516V3.16016H86.0624V9.5H85.3885L85.3593 8.03516ZM85.4882 6.86328L85.8514 6.85156C85.8514 7.25 85.8046 7.61719 85.7108 7.95312C85.6171 8.28906 85.4706 8.58203 85.2714 8.83203C85.0721 9.08203 84.8143 9.27539 84.4979 9.41211C84.1815 9.54883 83.8007 9.61719 83.3553 9.61719C83.0468 9.61719 82.7635 9.57422 82.5057 9.48828C82.2518 9.39844 82.0331 9.25781 81.8495 9.06641C81.6659 8.875 81.5233 8.62695 81.4218 8.32227C81.3241 8.01758 81.2753 7.64844 81.2753 7.21484V3.16016H81.9725V7.22656C81.9725 7.56641 82.0096 7.84961 82.0839 8.07617C82.162 8.30273 82.2675 8.48438 82.4003 8.62109C82.537 8.75781 82.6932 8.85547 82.869 8.91406C83.0448 8.97266 83.2343 9.00195 83.4374 9.00195C83.953 9.00195 84.3593 8.90234 84.6561 8.70312C84.9569 8.50391 85.1698 8.24219 85.2948 7.91797C85.4237 7.58984 85.4882 7.23828 85.4882 6.86328ZM88.5585 4.47266V9.5H87.8553V3.16016H88.5292L88.5585 4.47266ZM88.4296 5.9375L88.0897 5.76172C88.1132 5.38672 88.1835 5.03516 88.3007 4.70703C88.4218 4.37891 88.5897 4.08984 88.8046 3.83984C89.0194 3.58984 89.2772 3.39453 89.578 3.25391C89.8788 3.11328 90.2206 3.04297 90.6034 3.04297C90.912 3.04297 91.1913 3.08594 91.4413 3.17188C91.6952 3.25391 91.91 3.38477 92.0858 3.56445C92.2655 3.74023 92.4042 3.9707 92.5018 4.25586C92.5995 4.54102 92.6483 4.88281 92.6483 5.28125V9.5H91.951V5.30469C91.951 4.88281 91.8846 4.55273 91.7518 4.31445C91.6229 4.07617 91.4413 3.90625 91.2069 3.80469C90.9764 3.70312 90.7089 3.65234 90.4042 3.65234C90.0448 3.65234 89.7401 3.72656 89.4901 3.875C89.244 4.01953 89.0428 4.20898 88.8866 4.44336C88.7343 4.67383 88.621 4.92188 88.5468 5.1875C88.4725 5.44922 88.4335 5.69922 88.4296 5.9375ZM92.6425 5.38672L92.1737 5.39844C92.1932 5.08984 92.2635 4.79492 92.3846 4.51367C92.5096 4.23242 92.6796 3.98242 92.8944 3.76367C93.1093 3.54102 93.3651 3.36523 93.662 3.23633C93.9628 3.10742 94.3007 3.04297 94.6757 3.04297C95.0038 3.04297 95.2968 3.08789 95.5546 3.17773C95.8124 3.26367 96.0292 3.40234 96.205 3.59375C96.3846 3.78125 96.5214 4.02148 96.6151 4.31445C96.7089 4.60742 96.7557 4.95898 96.7557 5.36914V9.5H96.0526V5.36328C96.0526 4.91406 95.9862 4.56641 95.8534 4.32031C95.7245 4.07031 95.5448 3.89648 95.3143 3.79883C95.0839 3.70117 94.8143 3.65234 94.5057 3.65234C94.201 3.65625 93.9335 3.71289 93.703 3.82227C93.4725 3.92773 93.2792 4.06836 93.1229 4.24414C92.9706 4.41602 92.8534 4.60156 92.7714 4.80078C92.6932 5 92.6503 5.19531 92.6425 5.38672ZM102.392 8.36328V5.09375C102.392 4.79297 102.33 4.5332 102.205 4.31445C102.08 4.0957 101.896 3.92773 101.654 3.81055C101.412 3.69336 101.113 3.63477 100.758 3.63477C100.43 3.63477 100.137 3.69336 99.8788 3.81055C99.6249 3.92383 99.4237 4.07812 99.2753 4.27344C99.1307 4.46484 99.0585 4.67773 99.0585 4.91211L98.3553 4.90625C98.3553 4.66797 98.4139 4.4375 98.5311 4.21484C98.6483 3.99219 98.8143 3.79297 99.0292 3.61719C99.244 3.44141 99.4999 3.30273 99.7968 3.20117C100.098 3.0957 100.428 3.04297 100.787 3.04297C101.24 3.04297 101.639 3.11914 101.982 3.27148C102.33 3.42383 102.601 3.65234 102.797 3.95703C102.992 4.26172 103.09 4.64453 103.09 5.10547V8.16992C103.09 8.38867 103.105 8.61523 103.137 8.84961C103.172 9.08398 103.221 9.27734 103.283 9.42969V9.5H102.539C102.492 9.35938 102.455 9.18359 102.428 8.97266C102.404 8.75781 102.392 8.55469 102.392 8.36328ZM102.557 5.80859L102.568 6.34766H101.191C100.832 6.34766 100.51 6.38086 100.224 6.44727C99.9432 6.50977 99.705 6.60352 99.5096 6.72852C99.3143 6.84961 99.1639 6.99609 99.0585 7.16797C98.9569 7.33984 98.9061 7.53516 98.9061 7.75391C98.9061 7.98047 98.9628 8.1875 99.076 8.375C99.1932 8.5625 99.3573 8.71289 99.5682 8.82617C99.7831 8.93555 100.037 8.99023 100.33 8.99023C100.721 8.99023 101.064 8.91797 101.361 8.77344C101.662 8.62891 101.91 8.43945 102.105 8.20508C102.301 7.9707 102.432 7.71484 102.498 7.4375L102.803 7.8418C102.752 8.03711 102.658 8.23828 102.521 8.44531C102.389 8.64844 102.215 8.83984 102 9.01953C101.785 9.19531 101.531 9.33984 101.238 9.45312C100.949 9.5625 100.621 9.61719 100.254 9.61719C99.8397 9.61719 99.4784 9.53906 99.1698 9.38281C98.8651 9.22656 98.6268 9.01367 98.455 8.74414C98.287 8.4707 98.203 8.16211 98.203 7.81836C98.203 7.50586 98.2694 7.22656 98.4022 6.98047C98.535 6.73047 98.7264 6.51953 98.9764 6.34766C99.2303 6.17188 99.535 6.03906 99.8905 5.94922C100.25 5.85547 100.652 5.80859 101.098 5.80859H102.557ZM108.68 0.5V9.5H107.982V0.5H108.68ZM113.045 9.61719C112.631 9.61719 112.25 9.54102 111.902 9.38867C111.558 9.23633 111.258 9.02148 111 8.74414C110.746 8.4668 110.549 8.13867 110.408 7.75977C110.271 7.37695 110.203 6.95898 110.203 6.50586V6.25391C110.203 5.76562 110.275 5.32422 110.42 4.92969C110.564 4.53516 110.764 4.19727 111.017 3.91602C111.271 3.63477 111.56 3.41992 111.885 3.27148C112.213 3.11914 112.557 3.04297 112.916 3.04297C113.318 3.04297 113.676 3.11523 113.988 3.25977C114.301 3.40039 114.562 3.60156 114.773 3.86328C114.988 4.12109 115.15 4.42773 115.26 4.7832C115.369 5.13477 115.424 5.52344 115.424 5.94922V6.37695H110.625V5.7793H114.726V5.69727C114.719 5.3418 114.646 5.00977 114.51 4.70117C114.377 4.38867 114.178 4.13477 113.912 3.93945C113.646 3.74414 113.314 3.64648 112.916 3.64648C112.619 3.64648 112.346 3.70898 112.096 3.83398C111.849 3.95898 111.637 4.13867 111.457 4.37305C111.281 4.60352 111.144 4.87891 111.047 5.19922C110.953 5.51562 110.906 5.86719 110.906 6.25391V6.50586C110.906 6.85742 110.957 7.18555 111.058 7.49023C111.164 7.79102 111.312 8.05664 111.504 8.28711C111.699 8.51758 111.93 8.69727 112.195 8.82617C112.461 8.95508 112.754 9.01953 113.074 9.01953C113.449 9.01953 113.781 8.95117 114.07 8.81445C114.359 8.67383 114.619 8.45312 114.849 8.15234L115.289 8.49219C115.152 8.69531 114.98 8.88281 114.773 9.05469C114.57 9.22656 114.326 9.36328 114.041 9.46484C113.756 9.56641 113.424 9.61719 113.045 9.61719ZM117.504 4.51367V9.5H116.807V3.16016H117.474L117.504 4.51367ZM117.346 5.9375L117.035 5.76172C117.058 5.38672 117.135 5.03516 117.264 4.70703C117.392 4.37891 117.566 4.08984 117.785 3.83984C118.008 3.58984 118.267 3.39453 118.564 3.25391C118.865 3.11328 119.197 3.04297 119.56 3.04297C119.877 3.04297 120.16 3.08594 120.41 3.17188C120.66 3.25781 120.873 3.39453 121.049 3.58203C121.224 3.76953 121.357 4.00977 121.447 4.30273C121.541 4.5957 121.588 4.95312 121.588 5.375V9.5H120.885V5.36914C120.885 4.93164 120.824 4.58984 120.703 4.34375C120.582 4.09375 120.41 3.91602 120.187 3.81055C119.965 3.70508 119.701 3.65234 119.396 3.65234C119.06 3.65234 118.766 3.72656 118.512 3.875C118.262 4.01953 118.051 4.20898 117.879 4.44336C117.711 4.67383 117.582 4.92188 117.492 5.1875C117.402 5.44922 117.353 5.69922 117.346 5.9375ZM127.523 8.26953V0.5H128.226V9.5H127.57L127.523 8.26953ZM123.123 6.39453V6.27148C123.123 5.7793 123.18 5.33594 123.293 4.94141C123.406 4.54297 123.568 4.20312 123.779 3.92188C123.994 3.63672 124.252 3.41992 124.553 3.27148C124.853 3.11914 125.193 3.04297 125.572 3.04297C125.943 3.04297 126.271 3.10352 126.557 3.22461C126.842 3.3457 127.086 3.51953 127.289 3.74609C127.496 3.97266 127.662 4.24219 127.787 4.55469C127.916 4.86719 128.01 5.21484 128.068 5.59766V7.16211C128.021 7.52148 127.935 7.85156 127.81 8.15234C127.685 8.44922 127.519 8.70898 127.312 8.93164C127.105 9.15039 126.855 9.32031 126.562 9.44141C126.273 9.55859 125.939 9.61719 125.56 9.61719C125.185 9.61719 124.848 9.53906 124.547 9.38281C124.246 9.22656 123.99 9.00586 123.779 8.7207C123.568 8.43164 123.406 8.08984 123.293 7.69531C123.18 7.30078 123.123 6.86719 123.123 6.39453ZM123.826 6.27148V6.39453C123.826 6.76562 123.863 7.10938 123.937 7.42578C124.012 7.74219 124.125 8.01758 124.277 8.25195C124.43 8.48633 124.623 8.66992 124.857 8.80273C125.092 8.93555 125.369 9.00195 125.689 9.00195C126.092 9.00195 126.43 8.92578 126.703 8.77344C126.976 8.61719 127.195 8.41211 127.359 8.1582C127.523 7.90039 127.642 7.61914 127.717 7.31445V5.49219C127.67 5.28516 127.601 5.07422 127.512 4.85938C127.422 4.64453 127.299 4.44727 127.142 4.26758C126.99 4.08398 126.795 3.9375 126.557 3.82812C126.322 3.71484 126.037 3.6582 125.701 3.6582C125.377 3.6582 125.098 3.72461 124.863 3.85742C124.629 3.99023 124.433 4.17578 124.277 4.41406C124.125 4.64844 124.012 4.92383 123.937 5.24023C123.863 5.55664 123.826 5.90039 123.826 6.27148ZM133.928 8.36328V5.09375C133.928 4.79297 133.865 4.5332 133.74 4.31445C133.615 4.0957 133.432 3.92773 133.189 3.81055C132.947 3.69336 132.648 3.63477 132.293 3.63477C131.965 3.63477 131.672 3.69336 131.414 3.81055C131.16 3.92383 130.959 4.07812 130.81 4.27344C130.666 4.46484 130.594 4.67773 130.594 4.91211L129.891 4.90625C129.891 4.66797 129.949 4.4375 130.066 4.21484C130.183 3.99219 130.349 3.79297 130.564 3.61719C130.779 3.44141 131.035 3.30273 131.332 3.20117C131.633 3.0957 131.963 3.04297 132.322 3.04297C132.775 3.04297 133.174 3.11914 133.517 3.27148C133.865 3.42383 134.137 3.65234 134.332 3.95703C134.527 4.26172 134.625 4.64453 134.625 5.10547V8.16992C134.625 8.38867 134.641 8.61523 134.672 8.84961C134.707 9.08398 134.756 9.27734 134.818 9.42969V9.5H134.074C134.027 9.35938 133.99 9.18359 133.963 8.97266C133.939 8.75781 133.928 8.55469 133.928 8.36328ZM134.092 5.80859L134.103 6.34766H132.726C132.367 6.34766 132.045 6.38086 131.76 6.44727C131.478 6.50977 131.24 6.60352 131.045 6.72852C130.849 6.84961 130.699 6.99609 130.594 7.16797C130.492 7.33984 130.441 7.53516 130.441 7.75391C130.441 7.98047 130.498 8.1875 130.611 8.375C130.728 8.5625 130.892 8.71289 131.103 8.82617C131.318 8.93555 131.572 8.99023 131.865 8.99023C132.256 8.99023 132.599 8.91797 132.896 8.77344C133.197 8.62891 133.445 8.43945 133.641 8.20508C133.836 7.9707 133.967 7.71484 134.033 7.4375L134.338 7.8418C134.287 8.03711 134.193 8.23828 134.057 8.44531C133.924 8.64844 133.75 8.83984 133.535 9.01953C133.32 9.19531 133.066 9.33984 132.773 9.45312C132.484 9.5625 132.156 9.61719 131.789 9.61719C131.375 9.61719 131.014 9.53906 130.705 9.38281C130.4 9.22656 130.162 9.01367 129.99 8.74414C129.822 8.4707 129.738 8.16211 129.738 7.81836C129.738 7.50586 129.805 7.22656 129.937 6.98047C130.07 6.73047 130.262 6.51953 130.512 6.34766C130.766 6.17188 131.07 6.03906 131.426 5.94922C131.785 5.85547 132.187 5.80859 132.633 5.80859H134.092Z" fill="white"/>
</svg>
