<svg width="183" height="85" viewBox="0 0 183 85" fill="none" xmlns="http://www.w3.org/2000/svg">
<path d="M36.6018 20.1039L37.0775 20.1094C37.6975 20.1167 38.2109 19.6154 38.2183 18.9954L38.2459 16.6577C38.2532 16.0377 37.7519 15.5242 37.1318 15.5169L36.6561 15.5113C36.0359 15.5041 35.5226 16.0054 35.5153 16.6254L35.511 16.9875L33.2081 16.9602L33.299 9.26657C33.3115 8.21255 32.3098 7.43523 31.2944 7.71836C30.3612 7.97844 29.4271 8.30585 28.4962 8.36954C28.2548 8.38603 28.014 8.33742 27.7912 8.243C25.9294 7.45367 23.0726 5.73394 19.5168 5.74148C16.3499 5.74818 13.7424 7.27712 11.9549 8.0135C11.6767 8.12804 11.3712 8.15807 11.0752 8.10444L7.12916 7.3883C6.16356 7.213 5.27213 7.94827 5.26054 8.92966L5.16974 16.6127L2.98167 16.5869L2.986 16.2248C2.99326 15.6048 2.49195 15.0913 1.87192 15.0841L1.39603 15.0785C0.775994 15.0712 0.262535 15.5725 0.255271 16.1926L0.227615 18.5302C0.220352 19.1503 0.721659 19.6637 1.34183 19.671L1.81772 19.6766C2.43776 19.684 2.95122 19.1825 2.95848 18.5625L2.95988 18.4487L5.14795 18.4745L5.05604 26.2478L2.86797 26.2219L2.8723 25.8599C2.87956 25.2399 2.37825 24.7264 1.75822 24.7191L1.28233 24.7135C0.662296 24.7063 0.148836 25.2076 0.141573 25.8276L0.113915 28.1653C0.106512 28.7853 0.607961 29.2988 1.22814 29.3061L1.70388 29.3116C2.32406 29.3189 2.83738 28.8176 2.84464 28.1976L2.84604 28.0837L5.03411 28.1096L4.94221 35.8829L2.75413 35.857L2.75846 35.495C2.76573 34.8748 2.26442 34.3615 1.64438 34.3542L1.16849 34.3486C0.548457 34.3414 0.0349975 34.8427 0.0277341 35.4627L7.79425e-05 37.8004C-0.00718538 38.4204 0.494123 38.9339 1.11416 38.9411L1.59005 38.9467C2.21008 38.9541 2.72354 38.4527 2.7308 37.8326L2.7322 37.7188L4.92028 37.7446L4.81859 46.3505C4.80825 47.2233 5.5128 47.9362 6.38551 47.9362C9.94356 47.9362 12.8162 50.8429 12.7742 54.4007L12.6897 61.5478L12.7015 73.9144C12.7017 74.0372 12.8013 74.1367 12.924 74.1367H14.1223C14.2453 74.1367 14.3448 74.0371 14.3448 73.9141V61.5676L17.7814 61.6083V78.0361C17.7814 78.159 17.881 78.2586 18.0039 78.2586H19.2021C19.325 78.2586 19.4246 78.159 19.4246 78.0361V61.6277L22.9833 61.6697V73.9146C22.9833 74.0375 23.0829 74.1371 23.2058 74.1371H24.404C24.5269 74.1371 24.6265 74.0375 24.6265 73.9146L24.6287 61.6891L24.7114 54.6948C24.7537 51.1122 27.67 48.2304 31.2529 48.2304H31.2717C32.1401 48.2304 32.8469 47.5318 32.8571 46.6636L32.9584 38.0926L35.2612 38.1198L35.2599 38.2337C35.2526 38.8538 35.7539 39.3671 36.3741 39.3744L36.8498 39.38C37.4699 39.3873 37.9832 38.886 37.9906 38.2659L38.0182 35.9282C38.0255 35.3081 37.5242 34.7948 36.904 34.7875L36.4283 34.7819C35.8082 34.7746 35.2948 35.2759 35.2875 35.896L35.2832 36.258L32.9803 36.2308L33.0722 28.4575L35.3751 28.4847L35.3737 28.5986C35.3664 29.2188 35.8677 29.7321 36.4879 29.7393L36.9637 29.7449C37.5837 29.7522 38.097 29.2509 38.1044 28.6308L38.1321 26.2932C38.1393 25.673 37.638 25.1597 37.018 25.1524L36.5423 25.1468C35.9221 25.1394 35.4088 25.6409 35.4015 26.2609L35.3972 26.623L33.0943 26.5957L33.1862 18.8224L35.4891 18.8497L35.4877 18.9635C35.4803 19.5833 35.9817 20.0966 36.6018 20.1039ZM10.0697 38.6648C8.92139 38.6513 8.00146 37.7093 8.01501 36.561C8.02856 35.4127 8.97056 34.4928 10.1189 34.5063C11.2672 34.5199 12.1871 35.4619 12.1735 36.6102C12.16 37.7585 11.218 38.6784 10.0697 38.6648ZM10.1814 29.2023C9.03313 29.1887 8.1132 28.2467 8.12675 27.0984C8.1403 25.9501 9.0823 25.0302 10.2306 25.0437C11.3789 25.0573 12.2988 25.9992 12.2853 27.1476C12.2717 28.296 11.3299 29.216 10.1814 29.2023ZM10.2933 19.7399C9.14501 19.7263 8.22509 18.7843 8.23864 17.636C8.25218 16.4877 9.19418 15.5678 10.3425 15.5813C11.4908 15.5949 12.4107 16.5369 12.3972 17.6852C12.3836 18.8335 11.4416 19.7534 10.2933 19.7399ZM27.9208 38.8758C26.7725 38.8622 25.8526 37.9202 25.8661 36.7719C25.8797 35.6236 26.8216 34.7037 27.97 34.7172C29.1183 34.7308 30.0382 35.6728 30.0247 36.8211C30.0111 37.9694 29.0693 38.8893 27.9208 38.8758ZM28.0327 29.4133C26.8844 29.3998 25.9645 28.4578 25.978 27.3095C25.9916 26.1612 26.9336 25.2413 28.0819 25.2548C29.2302 25.2684 30.1501 26.2103 30.1366 27.3587C30.123 28.507 29.181 29.4269 28.0327 29.4133ZM28.1446 19.9508C26.9963 19.9372 26.0764 18.9952 26.0899 17.8469C26.1035 16.6986 27.0455 15.7787 28.1938 15.7922C29.3421 15.8058 30.262 16.7478 30.2484 17.8961C30.2348 19.0445 29.2929 19.9645 28.1446 19.9508Z" fill="#A90F0F"/>
<path d="M70.0292 28.4727V33.5H53.3788V28.4727H70.0292ZM55.4843 2.21875V33.5H49.0389V2.21875H55.4843ZM67.8593 14.959V19.8574H53.3788V14.959H67.8593ZM70.0077 2.21875V7.26758H53.3788V2.21875H70.0077ZM86.701 28.4297V0.5H92.9315V33.5H87.3241L86.701 28.4297ZM72.0057 22.1562V21.7051C72.0057 19.929 72.2063 18.3177 72.6073 16.8711C73.0083 15.4102 73.5956 14.1569 74.369 13.1113C75.1425 12.0658 76.0949 11.2565 77.2264 10.6836C78.358 10.1107 79.647 9.82422 81.0936 9.82422C82.4543 9.82422 83.6431 10.1107 84.66 10.6836C85.6913 11.2565 86.565 12.0729 87.2811 13.1328C88.0116 14.1784 88.5988 15.4173 89.0428 16.8496C89.4869 18.2676 89.8091 19.8216 90.0096 21.5117V22.5C89.8091 24.1185 89.4869 25.6224 89.0428 27.0117C88.5988 28.401 88.0116 29.6185 87.2811 30.6641C86.565 31.6953 85.6913 32.4974 84.66 33.0703C83.6288 33.6432 82.4257 33.9297 81.0507 33.9297C79.604 33.9297 78.315 33.6361 77.1835 33.0488C76.0663 32.4616 75.121 31.638 74.3475 30.5781C73.5884 29.5182 73.0083 28.2721 72.6073 26.8398C72.2063 25.4076 72.0057 23.8464 72.0057 22.1562ZM78.1932 21.7051V22.1562C78.1932 23.1159 78.2649 24.0111 78.4081 24.8418C78.5656 25.6725 78.8163 26.4102 79.16 27.0547C79.5181 27.6849 79.9764 28.179 80.535 28.5371C81.108 28.8809 81.8026 29.0527 82.619 29.0527C83.6789 29.0527 84.5526 28.8164 85.2401 28.3438C85.9276 27.8568 86.4504 27.1908 86.8085 26.3457C87.1809 25.5007 87.3957 24.5267 87.453 23.4238V20.6094C87.41 19.707 87.2811 18.8978 87.0663 18.1816C86.8658 17.4512 86.565 16.8281 86.1639 16.3125C85.7772 15.7969 85.2902 15.3958 84.703 15.1094C84.1301 14.8229 83.4497 14.6797 82.662 14.6797C81.8599 14.6797 81.1724 14.8659 80.5995 15.2383C80.0266 15.5964 79.5611 16.0905 79.203 16.7207C78.8593 17.3509 78.6014 18.0957 78.4296 18.9551C78.272 19.8001 78.1932 20.7168 78.1932 21.7051ZM111.516 27.9355V10.2539H117.703V33.5H111.881L111.516 27.9355ZM112.203 23.166L114.029 23.123C114.029 24.6699 113.85 26.1094 113.492 27.4414C113.134 28.7591 112.597 29.9049 111.881 30.8789C111.165 31.8385 110.262 32.5905 109.174 33.1348C108.085 33.6647 106.803 33.9297 105.328 33.9297C104.196 33.9297 103.151 33.7721 102.191 33.457C101.246 33.1276 100.43 32.6191 99.7421 31.9316C99.0689 31.2298 98.5389 30.3346 98.1522 29.2461C97.7798 28.1432 97.5936 26.8184 97.5936 25.2715V10.2539H103.781V25.3145C103.781 26.002 103.86 26.582 104.017 27.0547C104.189 27.5273 104.426 27.9141 104.726 28.2148C105.027 28.5156 105.378 28.7305 105.779 28.8594C106.195 28.9883 106.653 29.0527 107.154 29.0527C108.429 29.0527 109.432 28.7949 110.162 28.2793C110.907 27.7637 111.43 27.0618 111.73 26.1738C112.045 25.2715 112.203 24.2689 112.203 23.166ZM132.033 29.0957C132.792 29.0957 133.465 28.9525 134.053 28.666C134.64 28.3652 135.098 27.9499 135.428 27.4199C135.771 26.8757 135.95 26.2383 135.965 25.5078H141.787C141.773 27.1406 141.336 28.5944 140.476 29.8691C139.617 31.1296 138.464 32.125 137.017 32.8555C135.571 33.5716 133.952 33.9297 132.162 33.9297C130.357 33.9297 128.782 33.6289 127.435 33.0273C126.103 32.4258 124.993 31.5951 124.105 30.5352C123.217 29.4609 122.551 28.2148 122.107 26.7969C121.663 25.3646 121.441 23.832 121.441 22.1992V21.5762C121.441 19.929 121.663 18.3965 122.107 16.9785C122.551 15.5462 123.217 14.3001 124.105 13.2402C124.993 12.166 126.103 11.3281 127.435 10.7266C128.767 10.125 130.329 9.82422 132.119 9.82422C134.024 9.82422 135.693 10.1895 137.125 10.9199C138.571 11.6504 139.703 12.696 140.519 14.0566C141.35 15.403 141.773 17 141.787 18.8477H135.965C135.95 18.0742 135.786 17.3724 135.471 16.7422C135.17 16.112 134.726 15.6107 134.139 15.2383C133.566 14.8516 132.857 14.6582 132.012 14.6582C131.109 14.6582 130.372 14.8516 129.799 15.2383C129.226 15.6107 128.782 16.1263 128.467 16.7852C128.152 17.4297 127.93 18.1673 127.801 18.998C127.686 19.8145 127.629 20.6738 127.629 21.5762V22.1992C127.629 23.1016 127.686 23.9681 127.801 24.7988C127.915 25.6296 128.13 26.3672 128.445 27.0117C128.775 27.6562 129.226 28.1647 129.799 28.5371C130.372 28.9095 131.116 29.0957 132.033 29.0957ZM157.922 28.2578V17.9023C157.922 17.1576 157.8 16.5202 157.557 15.9902C157.313 15.446 156.933 15.0234 156.418 14.7227C155.917 14.4219 155.265 14.2715 154.463 14.2715C153.775 14.2715 153.181 14.3932 152.68 14.6367C152.178 14.8659 151.792 15.2025 151.519 15.6465C151.247 16.0762 151.111 16.5846 151.111 17.1719H144.924C144.924 16.1836 145.153 15.2454 145.611 14.3574C146.07 13.4694 146.736 12.6888 147.609 12.0156C148.483 11.3281 149.521 10.791 150.724 10.4043C151.942 10.0176 153.303 9.82422 154.807 9.82422C156.611 9.82422 158.215 10.125 159.619 10.7266C161.023 11.3281 162.126 12.2305 162.928 13.4336C163.744 14.6367 164.152 16.1406 164.152 17.9453V27.8926C164.152 29.1673 164.231 30.2129 164.389 31.0293C164.546 31.8314 164.775 32.5332 165.076 33.1348V33.5H158.824C158.523 32.8698 158.294 32.082 158.137 31.1367C157.993 30.1771 157.922 29.2174 157.922 28.2578ZM158.738 19.3418L158.781 22.8438H155.322C154.506 22.8438 153.797 22.9368 153.195 23.123C152.594 23.3092 152.099 23.5742 151.713 23.918C151.326 24.2474 151.04 24.6341 150.853 25.0781C150.682 25.5221 150.596 26.0091 150.596 26.5391C150.596 27.069 150.717 27.5488 150.961 27.9785C151.204 28.3939 151.555 28.7233 152.014 28.9668C152.472 29.196 153.009 29.3105 153.625 29.3105C154.556 29.3105 155.365 29.1243 156.053 28.752C156.74 28.3796 157.27 27.9212 157.642 27.377C158.029 26.8327 158.23 26.3171 158.244 25.8301L159.877 28.4512C159.648 29.0384 159.333 29.6471 158.932 30.2773C158.545 30.9076 158.051 31.502 157.449 32.0605C156.848 32.6048 156.124 33.056 155.279 33.4141C154.434 33.7578 153.432 33.9297 152.271 33.9297C150.796 33.9297 149.457 33.6361 148.254 33.0488C147.065 32.4473 146.12 31.6237 145.418 30.5781C144.73 29.5182 144.387 28.3151 144.387 26.9688C144.387 25.7513 144.616 24.6699 145.074 23.7246C145.532 22.7793 146.206 21.9844 147.094 21.3398C147.996 20.681 149.12 20.1868 150.467 19.8574C151.813 19.5137 153.374 19.3418 155.15 19.3418H158.738ZM49.0389 37.2188H60.705C63.0969 37.2188 65.1522 37.5768 66.871 38.293C68.604 39.0091 69.9361 40.069 70.8671 41.4727C71.7981 42.8763 72.2635 44.6022 72.2635 46.6504C72.2635 48.3262 71.9771 49.7656 71.4042 50.9688C70.8456 52.1576 70.0507 53.153 69.0194 53.9551C68.0025 54.7428 66.8065 55.373 65.4315 55.8457L63.3905 56.9199H53.2499L53.2069 51.8926H60.7479C61.8794 51.8926 62.8176 51.6921 63.5624 51.291C64.3072 50.89 64.8658 50.3314 65.2382 49.6152C65.6249 48.8991 65.8182 48.0684 65.8182 47.123C65.8182 46.1204 65.632 45.2539 65.2596 44.5234C64.8872 43.793 64.3215 43.2344 63.5624 42.8477C62.8033 42.4609 61.8508 42.2676 60.705 42.2676H55.4843V68.5H49.0389V37.2188ZM66.5272 68.5L59.3944 54.5566L66.205 54.5137L73.4237 68.1992V68.5H66.5272ZM75.8514 57.1133V56.6621C75.8514 54.9577 76.0949 53.3893 76.5819 51.957C77.0689 50.5104 77.7779 49.2572 78.7089 48.1973C79.6399 47.1374 80.7857 46.3138 82.1464 45.7266C83.507 45.125 85.0682 44.8242 86.83 44.8242C88.5917 44.8242 90.16 45.125 91.535 45.7266C92.91 46.3138 94.063 47.1374 94.994 48.1973C95.9393 49.2572 96.6555 50.5104 97.1425 51.957C97.6294 53.3893 97.8729 54.9577 97.8729 56.6621V57.1133C97.8729 58.8034 97.6294 60.3717 97.1425 61.8184C96.6555 63.2507 95.9393 64.5039 94.994 65.5781C94.063 66.638 92.9172 67.4616 91.5565 68.0488C90.1958 68.6361 88.6346 68.9297 86.8729 68.9297C85.1112 68.9297 83.5428 68.6361 82.1678 68.0488C80.8072 67.4616 79.6542 66.638 78.7089 65.5781C77.7779 64.5039 77.0689 63.2507 76.5819 61.8184C76.0949 60.3717 75.8514 58.8034 75.8514 57.1133ZM82.0389 56.6621V57.1133C82.0389 58.0872 82.1249 58.9967 82.2968 59.8418C82.4686 60.6868 82.7408 61.4316 83.1132 62.0762C83.4999 62.7064 84.0012 63.2005 84.6171 63.5586C85.233 63.9167 85.9849 64.0957 86.8729 64.0957C87.7323 64.0957 88.4699 63.9167 89.0858 63.5586C89.7017 63.2005 90.1958 62.7064 90.5682 62.0762C90.9406 61.4316 91.2128 60.6868 91.3846 59.8418C91.5708 58.9967 91.6639 58.0872 91.6639 57.1133V56.6621C91.6639 55.7168 91.5708 54.8288 91.3846 53.998C91.2128 53.153 90.9335 52.4082 90.5468 51.7637C90.1744 51.1048 89.6802 50.5892 89.0643 50.2168C88.4484 49.8444 87.7037 49.6582 86.83 49.6582C85.9563 49.6582 85.2115 49.8444 84.5956 50.2168C83.994 50.5892 83.4999 51.1048 83.1132 51.7637C82.7408 52.4082 82.4686 53.153 82.2968 53.998C82.1249 54.8288 82.0389 55.7168 82.0389 56.6621ZM111.279 64.0957C112.038 64.0957 112.711 63.9525 113.299 63.666C113.886 63.3652 114.344 62.9499 114.674 62.4199C115.017 61.8757 115.196 61.2383 115.211 60.5078H121.033C121.019 62.1406 120.582 63.5944 119.723 64.8691C118.863 66.1296 117.71 67.125 116.264 67.8555C114.817 68.5716 113.198 68.9297 111.408 68.9297C109.603 68.9297 108.028 68.6289 106.682 68.0273C105.349 67.4258 104.239 66.5951 103.351 65.5352C102.463 64.4609 101.797 63.2148 101.353 61.7969C100.909 60.3646 100.687 58.832 100.687 57.1992V56.5762C100.687 54.929 100.909 53.3965 101.353 51.9785C101.797 50.5462 102.463 49.3001 103.351 48.2402C104.239 47.166 105.349 46.3281 106.682 45.7266C108.014 45.125 109.575 44.8242 111.365 44.8242C113.27 44.8242 114.939 45.1895 116.371 45.9199C117.818 46.6504 118.949 47.696 119.766 49.0566C120.596 50.403 121.019 52 121.033 53.8477H115.211C115.196 53.0742 115.032 52.3724 114.717 51.7422C114.416 51.112 113.972 50.6107 113.385 50.2383C112.812 49.8516 112.103 49.6582 111.258 49.6582C110.355 49.6582 109.618 49.8516 109.045 50.2383C108.472 50.6107 108.028 51.1263 107.713 51.7852C107.398 52.4297 107.176 53.1673 107.047 53.998C106.932 54.8145 106.875 55.6738 106.875 56.5762V57.1992C106.875 58.1016 106.932 58.9681 107.047 59.7988C107.161 60.6296 107.376 61.3672 107.691 62.0117C108.021 62.6562 108.472 63.1647 109.045 63.5371C109.618 63.9095 110.363 64.0957 111.279 64.0957ZM130.808 35.4785V68.5H124.621V35.4785H130.808ZM145.461 45.2539L135.363 56.7695L129.949 62.248L127.693 57.7793L131.99 52.3223L138.027 45.2539H145.461ZM139.037 68.5L132.162 57.7578L136.437 54.0195L146.17 68.5H139.037Z" fill="white"/>
<path d="M50.1307 74.4785L47.1776 82.5H46.4276L49.6503 73.9688H50.1718L50.1307 74.4785ZM52.8143 82.5L49.8553 74.4785L49.8143 73.9688H50.3358L53.5643 82.5H52.8143ZM52.287 79.4883V80.1094H47.7577V79.4883H52.287ZM55.3573 77.3789V84.9375H54.6542V76.1602H55.3104L55.3573 77.3789ZM59.7635 79.2715V79.3945C59.7635 79.8672 59.7089 80.3008 59.5995 80.6953C59.4901 81.0898 59.3319 81.4316 59.1249 81.7207C58.9218 82.0059 58.6698 82.2266 58.369 82.3828C58.0682 82.5391 57.7264 82.6172 57.3436 82.6172C56.9647 82.6172 56.6268 82.5586 56.33 82.4414C56.0331 82.3242 55.7772 82.1582 55.5624 81.9434C55.3514 81.7246 55.1815 81.4707 55.0526 81.1816C54.9276 80.8887 54.8397 80.5684 54.7889 80.2207V78.5977C54.8475 78.2148 54.9432 77.8672 55.076 77.5547C55.2089 77.2422 55.3788 76.9727 55.5858 76.7461C55.7968 76.5195 56.0468 76.3457 56.3358 76.2246C56.6249 76.1035 56.955 76.043 57.326 76.043C57.7128 76.043 58.0565 76.1191 58.3573 76.2715C58.662 76.4199 58.9178 76.6367 59.1249 76.9219C59.3358 77.2031 59.494 77.543 59.5995 77.9414C59.7089 78.3359 59.7635 78.7793 59.7635 79.2715ZM59.0604 79.3945V79.2715C59.0604 78.9004 59.0214 78.5566 58.9432 78.2402C58.869 77.9238 58.7538 77.6484 58.5975 77.4141C58.4452 77.1758 58.2499 76.9902 58.0116 76.8574C57.7772 76.7246 57.4979 76.6582 57.1737 76.6582C56.8378 76.6582 56.5507 76.7148 56.3124 76.8281C56.078 76.9375 55.8827 77.084 55.7264 77.2676C55.5702 77.4473 55.4471 77.6445 55.3573 77.8594C55.2675 78.0742 55.201 78.2852 55.1581 78.4922V80.3613C55.2323 80.6582 55.3514 80.9336 55.5155 81.1875C55.6796 81.4375 55.8983 81.6387 56.1718 81.791C56.4491 81.9395 56.787 82.0137 57.1854 82.0137C57.5057 82.0137 57.7831 81.9473 58.0175 81.8145C58.2518 81.6816 58.4452 81.4961 58.5975 81.2578C58.7538 81.0195 58.869 80.7422 58.9432 80.4258C59.0214 80.1094 59.0604 79.7656 59.0604 79.3945ZM62.0194 77.209V82.5H61.3221V76.1602H62.0018L62.0194 77.209ZM64.2635 76.1133L64.246 76.7578C64.1678 76.7461 64.0917 76.7363 64.0175 76.7285C63.9432 76.7207 63.8632 76.7168 63.7772 76.7168C63.4725 76.7168 63.205 76.7734 62.9745 76.8867C62.7479 76.9961 62.5565 77.1504 62.4003 77.3496C62.244 77.5449 62.1249 77.7754 62.0428 78.041C61.9608 78.3027 61.9139 78.584 61.9022 78.8848L61.6444 78.9844C61.6444 78.5703 61.6874 78.1855 61.7733 77.8301C61.8593 77.4746 61.9901 77.1641 62.1659 76.8984C62.3456 76.6289 62.5702 76.4199 62.8397 76.2715C63.1132 76.1191 63.4335 76.043 63.8007 76.043C63.8905 76.043 63.9784 76.0508 64.0643 76.0664C64.1542 76.0781 64.2206 76.0938 64.2635 76.1133ZM67.6971 82.6172C67.2831 82.6172 66.9022 82.541 66.5546 82.3887C66.2108 82.2363 65.91 82.0215 65.6522 81.7441C65.3983 81.4668 65.201 81.1387 65.0604 80.7598C64.9237 80.377 64.8553 79.959 64.8553 79.5059V79.2539C64.8553 78.7656 64.9276 78.3242 65.0721 77.9297C65.2167 77.5352 65.4159 77.1973 65.6698 76.916C65.9237 76.6348 66.2128 76.4199 66.537 76.2715C66.8651 76.1191 67.2089 76.043 67.5682 76.043C67.9706 76.043 68.328 76.1152 68.6405 76.2598C68.953 76.4004 69.2147 76.6016 69.4257 76.8633C69.6405 77.1211 69.8026 77.4277 69.912 77.7832C70.0214 78.1348 70.076 78.5234 70.076 78.9492V79.377H65.2772V78.7793H69.3788V78.6973C69.371 78.3418 69.2987 78.0098 69.162 77.7012C69.0292 77.3887 68.83 77.1348 68.5643 76.9395C68.2987 76.7441 67.9667 76.6465 67.5682 76.6465C67.2714 76.6465 66.9979 76.709 66.7479 76.834C66.5018 76.959 66.2889 77.1387 66.1093 77.373C65.9335 77.6035 65.7968 77.8789 65.6991 78.1992C65.6053 78.5156 65.5585 78.8672 65.5585 79.2539V79.5059C65.5585 79.8574 65.6093 80.1855 65.7108 80.4902C65.8163 80.791 65.9647 81.0566 66.1561 81.2871C66.3514 81.5176 66.5819 81.6973 66.8475 81.8262C67.1132 81.9551 67.4061 82.0195 67.7264 82.0195C68.1014 82.0195 68.4335 81.9512 68.7225 81.8145C69.0116 81.6738 69.2714 81.4531 69.5018 81.1523L69.9413 81.4922C69.8046 81.6953 69.6327 81.8828 69.4257 82.0547C69.2225 82.2266 68.9784 82.3633 68.6932 82.4648C68.4081 82.5664 68.076 82.6172 67.6971 82.6172ZM72.1561 77.5137V82.5H71.4589V76.1602H72.1268L72.1561 77.5137ZM71.9979 78.9375L71.6874 78.7617C71.7108 78.3867 71.787 78.0352 71.9159 77.707C72.0448 77.3789 72.2186 77.0898 72.4374 76.8398C72.66 76.5898 72.9198 76.3945 73.2167 76.2539C73.5175 76.1133 73.8495 76.043 74.2128 76.043C74.5292 76.043 74.8124 76.0859 75.0624 76.1719C75.3124 76.2578 75.5253 76.3945 75.701 76.582C75.8768 76.7695 76.0096 77.0098 76.0995 77.3027C76.1932 77.5957 76.2401 77.9531 76.2401 78.375V82.5H75.537V78.3691C75.537 77.9316 75.4764 77.5898 75.3553 77.3438C75.2343 77.0938 75.0624 76.916 74.8397 76.8105C74.6171 76.7051 74.3534 76.6523 74.0487 76.6523C73.7128 76.6523 73.4178 76.7266 73.1639 76.875C72.9139 77.0195 72.703 77.209 72.5311 77.4434C72.3632 77.6738 72.2343 77.9219 72.1444 78.1875C72.0546 78.4492 72.0057 78.6992 71.9979 78.9375ZM82.1757 81.2695V73.5H82.8788V82.5H82.2225L82.1757 81.2695ZM77.7753 79.3945V79.2715C77.7753 78.7793 77.8319 78.3359 77.9452 77.9414C78.0585 77.543 78.2206 77.2031 78.4315 76.9219C78.6464 76.6367 78.9042 76.4199 79.205 76.2715C79.5057 76.1191 79.8456 76.043 80.2245 76.043C80.5956 76.043 80.9237 76.1035 81.2089 76.2246C81.494 76.3457 81.7382 76.5195 81.9413 76.7461C82.1483 76.9727 82.3143 77.2422 82.4393 77.5547C82.5682 77.8672 82.662 78.2148 82.7206 78.5977V80.1621C82.6737 80.5215 82.5878 80.8516 82.4628 81.1523C82.3378 81.4492 82.1718 81.709 81.9647 81.9316C81.7577 82.1504 81.5077 82.3203 81.2147 82.4414C80.9257 82.5586 80.5917 82.6172 80.2128 82.6172C79.8378 82.6172 79.4999 82.5391 79.1991 82.3828C78.8983 82.2266 78.6425 82.0059 78.4315 81.7207C78.2206 81.4316 78.0585 81.0898 77.9452 80.6953C77.8319 80.3008 77.7753 79.8672 77.7753 79.3945ZM78.4784 79.2715V79.3945C78.4784 79.7656 78.5155 80.1094 78.5897 80.4258C78.6639 80.7422 78.7772 81.0176 78.9296 81.252C79.0819 81.4863 79.2753 81.6699 79.5096 81.8027C79.744 81.9355 80.0214 82.002 80.3417 82.002C80.744 82.002 81.0819 81.9258 81.3553 81.7734C81.6288 81.6172 81.8475 81.4121 82.0116 81.1582C82.1757 80.9004 82.2948 80.6191 82.369 80.3145V78.4922C82.3221 78.2852 82.2538 78.0742 82.1639 77.8594C82.0741 77.6445 81.951 77.4473 81.7948 77.2676C81.6425 77.084 81.4471 76.9375 81.2089 76.8281C80.9745 76.7148 80.6893 76.6582 80.3534 76.6582C80.0292 76.6582 79.7499 76.7246 79.5155 76.8574C79.2811 76.9902 79.0858 77.1758 78.9296 77.4141C78.7772 77.6484 78.6639 77.9238 78.5897 78.2402C78.5155 78.5566 78.4784 78.9004 78.4784 79.2715ZM88.58 81.3633V78.0938C88.58 77.793 88.5175 77.5332 88.3925 77.3145C88.2675 77.0957 88.0839 76.9277 87.8417 76.8105C87.5995 76.6934 87.3007 76.6348 86.9452 76.6348C86.6171 76.6348 86.3241 76.6934 86.0663 76.8105C85.8124 76.9238 85.6112 77.0781 85.4628 77.2734C85.3182 77.4648 85.246 77.6777 85.246 77.9121L84.5428 77.9062C84.5428 77.668 84.6014 77.4375 84.7186 77.2148C84.8358 76.9922 85.0018 76.793 85.2167 76.6172C85.4315 76.4414 85.6874 76.3027 85.9843 76.2012C86.285 76.0957 86.6151 76.043 86.9745 76.043C87.4276 76.043 87.826 76.1191 88.1698 76.2715C88.5175 76.4238 88.7889 76.6523 88.9843 76.957C89.1796 77.2617 89.2772 77.6445 89.2772 78.1055V81.1699C89.2772 81.3887 89.2928 81.6152 89.3241 81.8496C89.3593 82.084 89.4081 82.2773 89.4706 82.4297V82.5H88.7264C88.6796 82.3594 88.6425 82.1836 88.6151 81.9727C88.5917 81.7578 88.58 81.5547 88.58 81.3633ZM88.744 78.8086L88.7557 79.3477H87.3788C87.0194 79.3477 86.6971 79.3809 86.412 79.4473C86.1307 79.5098 85.8925 79.6035 85.6971 79.7285C85.5018 79.8496 85.3514 79.9961 85.246 80.168C85.1444 80.3398 85.0936 80.5352 85.0936 80.7539C85.0936 80.9805 85.1503 81.1875 85.2635 81.375C85.3807 81.5625 85.5448 81.7129 85.7557 81.8262C85.9706 81.9355 86.2245 81.9902 86.5175 81.9902C86.9081 81.9902 87.2518 81.918 87.5487 81.7734C87.8495 81.6289 88.0975 81.4395 88.2928 81.2051C88.4882 80.9707 88.619 80.7148 88.6854 80.4375L88.9901 80.8418C88.9393 81.0371 88.8456 81.2383 88.7089 81.4453C88.576 81.6484 88.4022 81.8398 88.1874 82.0195C87.9725 82.1953 87.7186 82.3398 87.4257 82.4531C87.1366 82.5625 86.8085 82.6172 86.4413 82.6172C86.0272 82.6172 85.6659 82.5391 85.3573 82.3828C85.0526 82.2266 84.8143 82.0137 84.6425 81.7441C84.4745 81.4707 84.3905 81.1621 84.3905 80.8184C84.3905 80.5059 84.4569 80.2266 84.5897 79.9805C84.7225 79.7305 84.9139 79.5195 85.1639 79.3477C85.4178 79.1719 85.7225 79.0391 86.078 78.9492C86.4374 78.8555 86.8397 78.8086 87.285 78.8086H88.744ZM96.4257 82.0137C96.7225 82.0137 96.9999 81.959 97.2577 81.8496C97.5194 81.7363 97.7343 81.5703 97.9022 81.3516C98.0741 81.1289 98.1718 80.8574 98.1952 80.5371H98.8632C98.8436 80.9395 98.7206 81.2988 98.494 81.6152C98.2714 81.9277 97.9784 82.1738 97.6151 82.3535C97.2557 82.5293 96.8593 82.6172 96.4257 82.6172C95.9843 82.6172 95.5936 82.5371 95.2538 82.377C94.9178 82.2168 94.6366 81.9941 94.41 81.709C94.1835 81.4199 94.0116 81.084 93.8944 80.7012C93.7811 80.3145 93.7245 79.8984 93.7245 79.4531V79.207C93.7245 78.7617 93.7811 78.3477 93.8944 77.9648C94.0116 77.5781 94.1835 77.2422 94.41 76.957C94.6366 76.668 94.9178 76.4434 95.2538 76.2832C95.5897 76.123 95.9784 76.043 96.4198 76.043C96.8729 76.043 97.2792 76.1348 97.6385 76.3184C98.0018 76.502 98.2909 76.7617 98.5057 77.0977C98.7245 77.4336 98.8436 77.832 98.8632 78.293H98.1952C98.1757 77.9531 98.0858 77.6602 97.9257 77.4141C97.7655 77.168 97.5546 76.9785 97.2928 76.8457C97.0311 76.7129 96.7401 76.6465 96.4198 76.6465C96.0604 76.6465 95.7538 76.7168 95.4999 76.8574C95.246 76.9941 95.0389 77.1836 94.8788 77.4258C94.7225 77.6641 94.6073 77.9375 94.5331 78.2461C94.4589 78.5508 94.4218 78.8711 94.4218 79.207V79.4531C94.4218 79.793 94.4569 80.1172 94.5272 80.4258C94.6014 80.7305 94.7167 81.002 94.8729 81.2402C95.0331 81.4785 95.2401 81.668 95.494 81.8086C95.7518 81.9453 96.0624 82.0137 96.4257 82.0137ZM99.8885 79.4297V79.2363C99.8885 78.7754 99.955 78.3496 100.088 77.959C100.221 77.5684 100.41 77.2305 100.656 76.9453C100.906 76.6602 101.205 76.4395 101.553 76.2832C101.9 76.123 102.287 76.043 102.713 76.043C103.142 76.043 103.531 76.123 103.879 76.2832C104.226 76.4395 104.525 76.6602 104.775 76.9453C105.025 77.2305 105.217 77.5684 105.349 77.959C105.482 78.3496 105.549 78.7754 105.549 79.2363V79.4297C105.549 79.8906 105.482 80.3164 105.349 80.707C105.217 81.0938 105.025 81.4297 104.775 81.7148C104.529 82 104.232 82.2227 103.885 82.3828C103.537 82.5391 103.15 82.6172 102.724 82.6172C102.295 82.6172 101.906 82.5391 101.558 82.3828C101.211 82.2227 100.912 82 100.662 81.7148C100.412 81.4297 100.221 81.0938 100.088 80.707C99.955 80.3164 99.8885 79.8906 99.8885 79.4297ZM100.586 79.2363V79.4297C100.586 79.7773 100.633 80.1074 100.726 80.4199C100.82 80.7285 100.957 81.0039 101.137 81.2461C101.316 81.4844 101.539 81.6719 101.805 81.8086C102.07 81.9453 102.377 82.0137 102.724 82.0137C103.068 82.0137 103.371 81.9453 103.633 81.8086C103.898 81.6719 104.121 81.4844 104.301 81.2461C104.48 81.0039 104.615 80.7285 104.705 80.4199C104.799 80.1074 104.846 79.7773 104.846 79.4297V79.2363C104.846 78.8926 104.799 78.5664 104.705 78.2578C104.615 77.9492 104.478 77.6738 104.295 77.4316C104.115 77.1895 103.892 76.998 103.627 76.8574C103.361 76.7168 103.057 76.6465 102.713 76.6465C102.369 76.6465 102.064 76.7168 101.799 76.8574C101.537 76.998 101.314 77.1895 101.131 77.4316C100.951 77.6738 100.814 77.9492 100.721 78.2578C100.631 78.5664 100.586 78.8926 100.586 79.2363ZM107.664 77.4727V82.5H106.961V76.1602H107.635L107.664 77.4727ZM107.535 78.9375L107.195 78.7617C107.219 78.3867 107.289 78.0352 107.406 77.707C107.527 77.3789 107.695 77.0898 107.91 76.8398C108.125 76.5898 108.383 76.3945 108.683 76.2539C108.984 76.1133 109.326 76.043 109.709 76.043C110.017 76.043 110.297 76.0859 110.547 76.1719C110.801 76.2539 111.016 76.3848 111.191 76.5645C111.371 76.7402 111.51 76.9707 111.607 77.2559C111.705 77.541 111.754 77.8828 111.754 78.2812V82.5H111.057V78.3047C111.057 77.8828 110.99 77.5527 110.857 77.3145C110.728 77.0762 110.547 76.9062 110.312 76.8047C110.082 76.7031 109.814 76.6523 109.51 76.6523C109.15 76.6523 108.846 76.7266 108.596 76.875C108.349 77.0195 108.148 77.209 107.992 77.4434C107.84 77.6738 107.726 77.9219 107.652 78.1875C107.578 78.4492 107.539 78.6992 107.535 78.9375ZM111.748 78.3867L111.279 78.3984C111.299 78.0898 111.369 77.7949 111.49 77.5137C111.615 77.2324 111.785 76.9824 112 76.7637C112.215 76.541 112.471 76.3652 112.767 76.2363C113.068 76.1074 113.406 76.043 113.781 76.043C114.109 76.043 114.402 76.0879 114.66 76.1777C114.918 76.2637 115.135 76.4023 115.31 76.5938C115.49 76.7812 115.627 77.0215 115.721 77.3145C115.814 77.6074 115.861 77.959 115.861 78.3691V82.5H115.158V78.3633C115.158 77.9141 115.092 77.5664 114.959 77.3203C114.83 77.0703 114.65 76.8965 114.42 76.7988C114.189 76.7012 113.92 76.6523 113.611 76.6523C113.307 76.6562 113.039 76.7129 112.808 76.8223C112.578 76.9277 112.385 77.0684 112.228 77.2441C112.076 77.416 111.959 77.6016 111.877 77.8008C111.799 78 111.756 78.1953 111.748 78.3867ZM117.256 79.4297V79.2363C117.256 78.7754 117.322 78.3496 117.455 77.959C117.588 77.5684 117.777 77.2305 118.023 76.9453C118.273 76.6602 118.572 76.4395 118.92 76.2832C119.267 76.123 119.654 76.043 120.08 76.043C120.51 76.043 120.898 76.123 121.246 76.2832C121.594 76.4395 121.892 76.6602 122.142 76.9453C122.392 77.2305 122.584 77.5684 122.717 77.959C122.849 78.3496 122.916 78.7754 122.916 79.2363V79.4297C122.916 79.8906 122.849 80.3164 122.717 80.707C122.584 81.0938 122.392 81.4297 122.142 81.7148C121.896 82 121.599 82.2227 121.252 82.3828C120.904 82.5391 120.517 82.6172 120.092 82.6172C119.662 82.6172 119.273 82.5391 118.926 82.3828C118.578 82.2227 118.279 82 118.029 81.7148C117.779 81.4297 117.588 81.0938 117.455 80.707C117.322 80.3164 117.256 79.8906 117.256 79.4297ZM117.953 79.2363V79.4297C117.953 79.7773 118 80.1074 118.094 80.4199C118.187 80.7285 118.324 81.0039 118.504 81.2461C118.683 81.4844 118.906 81.6719 119.172 81.8086C119.437 81.9453 119.744 82.0137 120.092 82.0137C120.435 82.0137 120.738 81.9453 121 81.8086C121.266 81.6719 121.488 81.4844 121.668 81.2461C121.848 81.0039 121.982 80.7285 122.072 80.4199C122.166 80.1074 122.213 79.7773 122.213 79.4297V79.2363C122.213 78.8926 122.166 78.5664 122.072 78.2578C121.982 77.9492 121.846 77.6738 121.662 77.4316C121.482 77.1895 121.26 76.998 120.994 76.8574C120.728 76.7168 120.424 76.6465 120.08 76.6465C119.736 76.6465 119.432 76.7168 119.166 76.8574C118.904 76.998 118.682 77.1895 118.498 77.4316C118.318 77.6738 118.182 77.9492 118.088 78.2578C117.998 78.5664 117.953 78.8926 117.953 79.2363ZM131.359 81.0352V76.1602H132.062V82.5H131.389L131.359 81.0352ZM131.488 79.8633L131.851 79.8516C131.851 80.25 131.805 80.6172 131.711 80.9531C131.617 81.2891 131.471 81.582 131.271 81.832C131.072 82.082 130.814 82.2754 130.498 82.4121C130.182 82.5488 129.801 82.6172 129.355 82.6172C129.047 82.6172 128.764 82.5742 128.506 82.4883C128.252 82.3984 128.033 82.2578 127.849 82.0664C127.666 81.875 127.523 81.627 127.422 81.3223C127.324 81.0176 127.275 80.6484 127.275 80.2148V76.1602H127.973V80.2266C127.973 80.5664 128.01 80.8496 128.084 81.0762C128.162 81.3027 128.267 81.4844 128.4 81.6211C128.537 81.7578 128.693 81.8555 128.869 81.9141C129.045 81.9727 129.234 82.002 129.437 82.002C129.953 82.002 130.359 81.9023 130.656 81.7031C130.957 81.5039 131.17 81.2422 131.295 80.918C131.424 80.5898 131.488 80.2383 131.488 79.8633ZM134.558 77.4727V82.5H133.855V76.1602H134.529L134.558 77.4727ZM134.43 78.9375L134.09 78.7617C134.113 78.3867 134.183 78.0352 134.301 77.707C134.422 77.3789 134.59 77.0898 134.805 76.8398C135.019 76.5898 135.277 76.3945 135.578 76.2539C135.879 76.1133 136.221 76.043 136.603 76.043C136.912 76.043 137.191 76.0859 137.441 76.1719C137.695 76.2539 137.91 76.3848 138.086 76.5645C138.266 76.7402 138.404 76.9707 138.502 77.2559C138.599 77.541 138.648 77.8828 138.648 78.2812V82.5H137.951V78.3047C137.951 77.8828 137.885 77.5527 137.752 77.3145C137.623 77.0762 137.441 76.9062 137.207 76.8047C136.976 76.7031 136.709 76.6523 136.404 76.6523C136.045 76.6523 135.74 76.7266 135.49 76.875C135.244 77.0195 135.043 77.209 134.887 77.4434C134.734 77.6738 134.621 77.9219 134.547 78.1875C134.473 78.4492 134.433 78.6992 134.43 78.9375ZM138.642 78.3867L138.174 78.3984C138.193 78.0898 138.264 77.7949 138.385 77.5137C138.51 77.2324 138.68 76.9824 138.894 76.7637C139.109 76.541 139.365 76.3652 139.662 76.2363C139.963 76.1074 140.301 76.043 140.676 76.043C141.004 76.043 141.297 76.0879 141.555 76.1777C141.812 76.2637 142.029 76.4023 142.205 76.5938C142.385 76.7812 142.521 77.0215 142.615 77.3145C142.709 77.6074 142.756 77.959 142.756 78.3691V82.5H142.053V78.3633C142.053 77.9141 141.986 77.5664 141.853 77.3203C141.724 77.0703 141.545 76.8965 141.314 76.7988C141.084 76.7012 140.814 76.6523 140.506 76.6523C140.201 76.6562 139.933 76.7129 139.703 76.8223C139.473 76.9277 139.279 77.0684 139.123 77.2441C138.971 77.416 138.853 77.6016 138.771 77.8008C138.693 78 138.65 78.1953 138.642 78.3867ZM148.392 81.3633V78.0938C148.392 77.793 148.33 77.5332 148.205 77.3145C148.08 77.0957 147.896 76.9277 147.654 76.8105C147.412 76.6934 147.113 76.6348 146.758 76.6348C146.43 76.6348 146.137 76.6934 145.879 76.8105C145.625 76.9238 145.424 77.0781 145.275 77.2734C145.131 77.4648 145.058 77.6777 145.058 77.9121L144.355 77.9062C144.355 77.668 144.414 77.4375 144.531 77.2148C144.648 76.9922 144.814 76.793 145.029 76.6172C145.244 76.4414 145.5 76.3027 145.797 76.2012C146.098 76.0957 146.428 76.043 146.787 76.043C147.24 76.043 147.639 76.1191 147.982 76.2715C148.33 76.4238 148.601 76.6523 148.797 76.957C148.992 77.2617 149.09 77.6445 149.09 78.1055V81.1699C149.09 81.3887 149.105 81.6152 149.137 81.8496C149.172 82.084 149.221 82.2773 149.283 82.4297V82.5H148.539C148.492 82.3594 148.455 82.1836 148.428 81.9727C148.404 81.7578 148.392 81.5547 148.392 81.3633ZM148.557 78.8086L148.568 79.3477H147.191C146.832 79.3477 146.51 79.3809 146.224 79.4473C145.943 79.5098 145.705 79.6035 145.51 79.7285C145.314 79.8496 145.164 79.9961 145.058 80.168C144.957 80.3398 144.906 80.5352 144.906 80.7539C144.906 80.9805 144.963 81.1875 145.076 81.375C145.193 81.5625 145.357 81.7129 145.568 81.8262C145.783 81.9355 146.037 81.9902 146.33 81.9902C146.721 81.9902 147.064 81.918 147.361 81.7734C147.662 81.6289 147.91 81.4395 148.105 81.2051C148.301 80.9707 148.432 80.7148 148.498 80.4375L148.803 80.8418C148.752 81.0371 148.658 81.2383 148.521 81.4453C148.389 81.6484 148.215 81.8398 148 82.0195C147.785 82.1953 147.531 82.3398 147.238 82.4531C146.949 82.5625 146.621 82.6172 146.254 82.6172C145.84 82.6172 145.478 82.5391 145.17 82.3828C144.865 82.2266 144.627 82.0137 144.455 81.7441C144.287 81.4707 144.203 81.1621 144.203 80.8184C144.203 80.5059 144.269 80.2266 144.402 79.9805C144.535 79.7305 144.726 79.5195 144.976 79.3477C145.23 79.1719 145.535 79.0391 145.891 78.9492C146.25 78.8555 146.652 78.8086 147.098 78.8086H148.557ZM154.68 73.5V82.5H153.982V73.5H154.68ZM159.045 82.6172C158.631 82.6172 158.25 82.541 157.902 82.3887C157.558 82.2363 157.258 82.0215 157 81.7441C156.746 81.4668 156.549 81.1387 156.408 80.7598C156.271 80.377 156.203 79.959 156.203 79.5059V79.2539C156.203 78.7656 156.275 78.3242 156.42 77.9297C156.564 77.5352 156.764 77.1973 157.017 76.916C157.271 76.6348 157.56 76.4199 157.885 76.2715C158.213 76.1191 158.557 76.043 158.916 76.043C159.318 76.043 159.676 76.1152 159.988 76.2598C160.301 76.4004 160.562 76.6016 160.773 76.8633C160.988 77.1211 161.15 77.4277 161.26 77.7832C161.369 78.1348 161.424 78.5234 161.424 78.9492V79.377H156.625V78.7793H160.726V78.6973C160.719 78.3418 160.646 78.0098 160.51 77.7012C160.377 77.3887 160.178 77.1348 159.912 76.9395C159.646 76.7441 159.314 76.6465 158.916 76.6465C158.619 76.6465 158.346 76.709 158.096 76.834C157.849 76.959 157.637 77.1387 157.457 77.373C157.281 77.6035 157.144 77.8789 157.047 78.1992C156.953 78.5156 156.906 78.8672 156.906 79.2539V79.5059C156.906 79.8574 156.957 80.1855 157.058 80.4902C157.164 80.791 157.312 81.0566 157.504 81.2871C157.699 81.5176 157.93 81.6973 158.195 81.8262C158.461 81.9551 158.754 82.0195 159.074 82.0195C159.449 82.0195 159.781 81.9512 160.07 81.8145C160.359 81.6738 160.619 81.4531 160.849 81.1523L161.289 81.4922C161.152 81.6953 160.98 81.8828 160.773 82.0547C160.57 82.2266 160.326 82.3633 160.041 82.4648C159.756 82.5664 159.424 82.6172 159.045 82.6172ZM163.504 77.5137V82.5H162.807V76.1602H163.474L163.504 77.5137ZM163.346 78.9375L163.035 78.7617C163.058 78.3867 163.135 78.0352 163.264 77.707C163.392 77.3789 163.566 77.0898 163.785 76.8398C164.008 76.5898 164.267 76.3945 164.564 76.2539C164.865 76.1133 165.197 76.043 165.56 76.043C165.877 76.043 166.16 76.0859 166.41 76.1719C166.66 76.2578 166.873 76.3945 167.049 76.582C167.224 76.7695 167.357 77.0098 167.447 77.3027C167.541 77.5957 167.588 77.9531 167.588 78.375V82.5H166.885V78.3691C166.885 77.9316 166.824 77.5898 166.703 77.3438C166.582 77.0938 166.41 76.916 166.187 76.8105C165.965 76.7051 165.701 76.6523 165.396 76.6523C165.06 76.6523 164.766 76.7266 164.512 76.875C164.262 77.0195 164.051 77.209 163.879 77.4434C163.711 77.6738 163.582 77.9219 163.492 78.1875C163.402 78.4492 163.353 78.6992 163.346 78.9375ZM173.523 81.2695V73.5H174.226V82.5H173.57L173.523 81.2695ZM169.123 79.3945V79.2715C169.123 78.7793 169.18 78.3359 169.293 77.9414C169.406 77.543 169.568 77.2031 169.779 76.9219C169.994 76.6367 170.252 76.4199 170.553 76.2715C170.853 76.1191 171.193 76.043 171.572 76.043C171.943 76.043 172.271 76.1035 172.557 76.2246C172.842 76.3457 173.086 76.5195 173.289 76.7461C173.496 76.9727 173.662 77.2422 173.787 77.5547C173.916 77.8672 174.01 78.2148 174.068 78.5977V80.1621C174.021 80.5215 173.935 80.8516 173.81 81.1523C173.685 81.4492 173.519 81.709 173.312 81.9316C173.105 82.1504 172.855 82.3203 172.562 82.4414C172.273 82.5586 171.939 82.6172 171.56 82.6172C171.185 82.6172 170.848 82.5391 170.547 82.3828C170.246 82.2266 169.99 82.0059 169.779 81.7207C169.568 81.4316 169.406 81.0898 169.293 80.6953C169.18 80.3008 169.123 79.8672 169.123 79.3945ZM169.826 79.2715V79.3945C169.826 79.7656 169.863 80.1094 169.937 80.4258C170.012 80.7422 170.125 81.0176 170.277 81.252C170.43 81.4863 170.623 81.6699 170.857 81.8027C171.092 81.9355 171.369 82.002 171.689 82.002C172.092 82.002 172.43 81.9258 172.703 81.7734C172.976 81.6172 173.195 81.4121 173.359 81.1582C173.523 80.9004 173.642 80.6191 173.717 80.3145V78.4922C173.67 78.2852 173.601 78.0742 173.512 77.8594C173.422 77.6445 173.299 77.4473 173.142 77.2676C172.99 77.084 172.795 76.9375 172.557 76.8281C172.322 76.7148 172.037 76.6582 171.701 76.6582C171.377 76.6582 171.098 76.7246 170.863 76.8574C170.629 76.9902 170.433 77.1758 170.277 77.4141C170.125 77.6484 170.012 77.9238 169.937 78.2402C169.863 78.5566 169.826 78.9004 169.826 79.2715ZM179.928 81.3633V78.0938C179.928 77.793 179.865 77.5332 179.74 77.3145C179.615 77.0957 179.432 76.9277 179.189 76.8105C178.947 76.6934 178.648 76.6348 178.293 76.6348C177.965 76.6348 177.672 76.6934 177.414 76.8105C177.16 76.9238 176.959 77.0781 176.81 77.2734C176.666 77.4648 176.594 77.6777 176.594 77.9121L175.891 77.9062C175.891 77.668 175.949 77.4375 176.066 77.2148C176.183 76.9922 176.349 76.793 176.564 76.6172C176.779 76.4414 177.035 76.3027 177.332 76.2012C177.633 76.0957 177.963 76.043 178.322 76.043C178.775 76.043 179.174 76.1191 179.517 76.2715C179.865 76.4238 180.137 76.6523 180.332 76.957C180.527 77.2617 180.625 77.6445 180.625 78.1055V81.1699C180.625 81.3887 180.641 81.6152 180.672 81.8496C180.707 82.084 180.756 82.2773 180.818 82.4297V82.5H180.074C180.027 82.3594 179.99 82.1836 179.963 81.9727C179.939 81.7578 179.928 81.5547 179.928 81.3633ZM180.092 78.8086L180.103 79.3477H178.726C178.367 79.3477 178.045 79.3809 177.76 79.4473C177.478 79.5098 177.24 79.6035 177.045 79.7285C176.849 79.8496 176.699 79.9961 176.594 80.168C176.492 80.3398 176.441 80.5352 176.441 80.7539C176.441 80.9805 176.498 81.1875 176.611 81.375C176.728 81.5625 176.892 81.7129 177.103 81.8262C177.318 81.9355 177.572 81.9902 177.865 81.9902C178.256 81.9902 178.599 81.918 178.896 81.7734C179.197 81.6289 179.445 81.4395 179.641 81.2051C179.836 80.9707 179.967 80.7148 180.033 80.4375L180.338 80.8418C180.287 81.0371 180.193 81.2383 180.057 81.4453C179.924 81.6484 179.75 81.8398 179.535 82.0195C179.32 82.1953 179.066 82.3398 178.773 82.4531C178.484 82.5625 178.156 82.6172 177.789 82.6172C177.375 82.6172 177.014 82.5391 176.705 82.3828C176.4 82.2266 176.162 82.0137 175.99 81.7441C175.822 81.4707 175.738 81.1621 175.738 80.8184C175.738 80.5059 175.805 80.2266 175.937 79.9805C176.07 79.7305 176.262 79.5195 176.512 79.3477C176.766 79.1719 177.07 79.0391 177.426 78.9492C177.785 78.8555 178.187 78.8086 178.633 78.8086H180.092Z" fill="white"/>
</svg>
